<svg width="295" height="184" viewBox="0 0 295 184" fill="none" xmlns="http://www.w3.org/2000/svg">
<path d="M195.794 57.5917C197.983 56.105 200.955 57.5821 201.102 60.216C201.435 66.2652 201.195 72.9016 200.587 79.7322C207.648 81.0057 214.635 84.7367 221.59 90.8232C221.88 91.0765 221.982 91.4825 221.846 91.8423C221.711 92.2022 221.366 92.4405 220.982 92.4405H218.59C221.484 95.5071 223.877 98.6405 225.811 101.836C226.075 102.272 225.936 102.84 225.499 103.104C225.063 103.368 224.495 103.228 224.231 102.792C222.049 99.1869 219.248 95.644 215.75 92.1724C215.484 91.909 215.404 91.5115 215.547 91.1658C215.689 90.8202 216.026 90.5946 216.401 90.5946H218.454C212.381 85.6739 206.379 82.6857 200.415 81.5773C200.027 85.5355 199.523 89.5467 198.942 93.536C198.869 94.0404 198.4 94.3898 197.895 94.3164C197.391 94.243 197.041 93.7746 197.115 93.2702C198.786 81.7932 199.802 70.2214 199.257 60.3184C199.19 59.1133 197.829 58.441 196.832 59.1187L196.83 59.1201C187.16 65.6584 177.378 71.5802 167.487 76.4767C167.03 76.7029 166.476 76.5161 166.25 76.0594C166.023 75.6026 166.21 75.0489 166.667 74.8226C176.463 69.9729 186.172 64.0975 195.794 57.5917Z" fill="#1D1D1D"/>
<path d="M248.144 102.549C248.234 101.815 247.537 101.214 246.821 101.413L222.684 108.149C222.193 108.286 221.684 107.999 221.546 107.508C221.409 107.017 221.696 106.508 222.188 106.371L246.325 99.6352C248.317 99.0802 250.231 100.741 249.977 102.779L249.977 102.785C248.072 117.37 241.278 129.913 230.425 141.931C232.654 144.059 237.425 149.698 240.175 155.054C241.601 157.832 242.596 160.743 242.189 163.103C241.978 164.331 241.385 165.415 240.307 166.206C239.252 166.98 237.81 167.418 235.987 167.536C235.967 167.537 235.947 167.538 235.927 167.538H198.547C195.223 167.538 193.172 165.165 192.424 162.491C191.685 159.848 192.123 156.64 194.003 154.56L194.007 154.555C199.023 149.082 205.697 147.034 212.377 147.414C219.04 147.792 225.738 150.583 230.929 154.825C231.324 155.148 231.382 155.729 231.059 156.124C230.736 156.518 230.154 156.577 229.76 156.254C224.844 152.237 218.512 149.611 212.272 149.257C206.051 148.903 199.952 150.803 195.372 155.799C194.011 157.308 193.594 159.817 194.203 161.994C194.803 164.141 196.303 165.692 198.547 165.692H235.897C237.494 165.585 238.543 165.21 239.214 164.718C239.864 164.241 240.229 163.601 240.369 162.79C240.665 161.069 239.936 158.633 238.531 155.896C235.893 150.757 231.268 145.295 229.177 143.292C228.63 143.879 228.074 144.464 227.509 145.049C227.497 145.06 227.486 145.072 227.474 145.083C227.464 145.093 227.453 145.102 227.442 145.111C227.987 146.6 228.162 148.16 227.708 149.775C227.616 150.102 227.276 150.293 226.948 150.201C226.621 150.109 226.43 149.769 226.522 149.442C226.956 147.898 226.702 146.377 225.997 144.835C225.962 144.758 225.944 144.678 225.941 144.599C225.88 144.309 225.959 143.995 226.181 143.766C238.552 130.98 246.141 117.889 248.144 102.549Z" fill="#1D1D1D"/>
<path d="M149.188 142.972C144.682 142.854 141.475 144.01 138.372 146.726C138.116 146.95 138.09 147.339 138.315 147.594C138.539 147.85 138.928 147.876 139.183 147.652C141.826 145.339 144.505 144.259 148.225 144.197L146.704 147.603L146.699 147.614C146.577 147.866 146.57 148.17 146.708 148.439C146.94 148.892 147.497 149.072 147.951 148.839C153.573 145.963 159.365 144.824 165.33 145.239C169.47 145.534 173.321 146.56 177.194 148.567C181.073 150.577 184.166 153.145 186.451 156.286C187.177 157.303 187.59 158.48 187.51 159.636C187.398 161.236 186.698 162.797 184.939 164.742L184.937 164.744C184.382 165.36 183.553 165.718 182.693 165.718H165.641C165.131 165.718 164.717 166.131 164.717 166.641C164.717 167.151 165.131 167.564 165.641 167.564H182.693C184.049 167.564 185.387 167.004 186.31 165.98C188.245 163.84 189.203 161.906 189.353 159.765C189.47 158.084 188.866 156.488 187.952 155.21L187.947 155.203C185.471 151.799 182.144 149.052 178.044 146.928C173.938 144.8 169.841 143.709 165.46 143.397L165.459 143.397C159.666 142.994 154.02 143.982 148.546 146.499L149.734 143.838C149.818 143.65 149.802 143.433 149.692 143.259C149.583 143.085 149.393 142.978 149.188 142.972Z" fill="#1D1D1D"/>
<path d="M136.314 116.08C136.529 115.817 136.489 115.429 136.226 115.215C135.962 115 135.574 115.04 135.359 115.304C129.712 122.237 125.784 129.56 123.657 136.375C121.681 142.704 121.245 148.637 122.474 153.421C119.685 153.571 116.875 153.937 114.057 154.484C114.65 153.639 115.022 152.701 115.032 151.652C115.034 151.384 114.92 151.128 114.719 150.951C114.517 150.773 114.249 150.692 113.983 150.729C98.28 152.881 82.727 151.943 66.5817 148.767C58.5733 121.155 66.803 97.0354 83.9724 88.6463C84.0898 88.589 84.1936 88.5074 84.2771 88.4069C106.27 61.9506 140.737 54.7947 172.806 68.8986C173.273 69.1039 173.818 68.8921 174.023 68.4256C174.229 67.959 174.017 67.4144 173.55 67.209C140.838 52.8227 105.542 60.0682 82.9824 87.076C65.0055 95.9961 56.8738 120.745 64.5446 148.355C63.1028 148.055 61.656 147.738 60.2038 147.405C59.7067 147.291 59.211 147.601 59.0967 148.097C58.9824 148.594 59.2927 149.089 59.7899 149.204C77.9539 153.378 95.3471 154.954 112.941 152.728C112.573 153.572 111.788 154.427 110.578 155.324C110.225 155.585 110.105 156.059 110.291 156.456C110.477 156.853 110.917 157.065 111.344 156.963C123.384 154.07 135.125 154.395 145.844 160.318C150.987 163.174 157.769 163.141 162.712 159.764C162.017 167.393 156.705 172.921 148.432 176.607C139.447 180.611 127.136 182.345 114.09 182.138C101.059 181.931 87.381 179.789 75.7042 176.112C63.9919 172.424 54.4394 167.238 49.4962 161.044C46.0482 156.714 46.2415 151.867 48.4945 147.701C50.7694 143.495 55.1269 140.048 59.8413 138.742C60.3328 138.606 60.6209 138.097 60.4846 137.606C60.3483 137.115 59.8394 136.827 59.3478 136.963C54.1593 138.4 49.3882 142.167 46.8694 146.824C44.3288 151.521 44.0631 157.186 48.0512 162.194L48.0518 162.195C53.3423 168.824 63.3261 174.15 75.149 177.873C87.0074 181.607 100.863 183.774 114.061 183.983C127.244 184.193 139.856 182.45 149.184 178.293C158.53 174.129 164.746 167.443 164.636 157.778C164.632 157.412 164.413 157.084 164.077 156.94C163.741 156.796 163.352 156.863 163.084 157.112C158.755 161.13 151.87 161.554 146.74 158.704L146.738 158.703C139.412 154.655 131.66 153.123 123.734 153.367C122.5 148.838 122.862 143.053 124.832 136.741C126.908 130.091 130.755 122.905 136.314 116.08Z" fill="#1D1D1D"/>
<path d="M107.409 91.2748C107.589 90.9861 107.968 90.8973 108.257 91.0766C116.17 95.9849 119.619 105.306 119.222 114.483C118.847 123.136 115.047 131.809 108.16 136.714L110.947 137.249C111.166 137.291 111.345 137.448 111.415 137.66C111.485 137.871 111.436 138.104 111.285 138.268C109.292 140.451 106.792 141.789 104.125 142.656C108.583 142.908 112.92 143.901 117.102 145.792C117.412 145.932 117.55 146.297 117.409 146.606C117.269 146.916 116.904 147.053 116.595 146.913C110.445 144.133 103.927 143.354 97.1262 144.075C96.7918 144.116 96.4593 144.154 96.1293 144.191C95.7931 144.229 95.4896 143.988 95.4496 143.653C95.4095 143.317 95.6479 143.012 95.9835 142.969C96.3138 142.928 96.6435 142.889 96.9727 142.854C101.586 142.289 106.231 141.303 109.576 138.239L106.445 137.637C106.195 137.589 106.001 137.393 105.956 137.143C105.91 136.893 106.023 136.641 106.24 136.508C113.498 132.071 117.607 123.308 117.991 114.43C118.376 105.554 115.034 96.7289 107.608 92.1221C107.319 91.9429 107.23 91.5635 107.409 91.2748Z" fill="#1D1D1D"/>
<path fill-rule="evenodd" clip-rule="evenodd" d="M185.114 125.662C183.699 124.304 182.314 123.738 181.054 123.909C179.792 124.081 178.853 124.967 178.274 126.079C177.132 128.273 177.194 131.71 179.098 134.013L179.1 134.015C179.615 134.633 180.298 135.058 181.025 135.313C181.053 135.328 181.084 135.341 181.115 135.352C181.807 135.587 182.801 135.707 183.84 135.705C184.888 135.703 186.039 135.576 187.054 135.279C188.048 134.987 189.015 134.501 189.559 133.704C190.146 132.845 190.144 131.778 189.507 130.597C189.019 129.69 188.246 128.774 187.45 127.94C186.827 127.288 186.165 126.66 185.583 126.109L185.579 126.105L185.495 126.025C185.363 125.899 185.235 125.778 185.114 125.662ZM179.366 126.647C178.428 128.451 178.492 131.346 180.046 133.228C180.411 133.665 180.922 133.985 181.506 134.177C181.536 134.187 181.566 134.199 181.594 134.213C182.112 134.372 182.918 134.477 183.838 134.475C184.8 134.473 185.83 134.355 186.707 134.098C187.603 133.835 188.237 133.457 188.542 133.01C188.804 132.626 188.903 132.07 188.423 131.181L188.422 131.18C188.015 130.422 187.335 129.603 186.559 128.79C185.959 128.162 185.327 127.562 184.749 127.014L184.731 126.997C184.57 126.844 184.412 126.695 184.261 126.55C182.993 125.333 181.964 125.028 181.22 125.129C180.48 125.229 179.828 125.76 179.366 126.647Z" fill="#1D1D1D"/>
<path d="M182.867 106.633C181.372 105.465 178.812 105.352 175.643 107.315C175.354 107.494 174.975 107.405 174.795 107.116C174.616 106.828 174.705 106.448 174.994 106.269C178.393 104.163 181.559 104.05 183.626 105.663C185.684 107.271 186.354 110.365 185.268 114.023C185.172 114.348 184.829 114.534 184.503 114.438C184.177 114.341 183.991 113.998 184.088 113.673C185.096 110.275 184.37 107.807 182.867 106.633Z" fill="#1D1D1D"/>
<path d="M200.903 126.053C204.142 123.915 206.507 123.942 207.861 124.897C209.231 125.863 209.907 128.015 209.241 130.881C209.164 131.212 209.37 131.543 209.702 131.619C210.033 131.696 210.364 131.49 210.441 131.159C211.162 128.053 210.525 125.27 208.571 123.892C206.602 122.503 203.635 122.775 200.224 125.026C199.941 125.214 199.862 125.595 200.05 125.879C200.237 126.163 200.619 126.241 200.903 126.053Z" fill="#1D1D1D"/>
<path d="M193.452 70.061C193.479 69.7222 193.226 69.426 192.887 69.3992C192.548 69.3725 192.251 69.6254 192.225 69.9642L190.792 88.1073C189.383 87.1951 187.68 86.469 186.433 85.9934C186.115 85.8722 185.759 86.0313 185.638 86.3488C185.517 86.6663 185.676 87.0219 185.994 87.1431C187.515 87.7234 189.578 88.6306 190.933 89.7219C191.111 89.865 191.354 89.8981 191.563 89.8078C191.773 89.7175 191.916 89.5186 191.934 89.2912L193.452 70.061Z" fill="#1D1D1D"/>
<path d="M242.967 106.856C243.101 107.169 242.955 107.53 242.642 107.663L224.234 115.502C226.642 118.544 227.576 122.016 227.623 125.704C227.627 126.044 227.355 126.323 227.015 126.327C226.675 126.332 226.396 126.06 226.392 125.72C226.344 121.994 225.344 118.594 222.769 115.666C222.638 115.518 222.587 115.316 222.63 115.124C222.674 114.931 222.808 114.772 222.99 114.694L242.16 106.531C242.472 106.398 242.834 106.543 242.967 106.856Z" fill="#1D1D1D"/>
<path d="M164.1 89.6889C164.351 89.46 164.369 89.0709 164.14 88.8197C163.911 88.5685 163.522 88.5504 163.27 88.7793C156.612 94.8414 150.055 97.2089 143.549 96.1175C143.333 96.0813 143.114 96.1625 142.974 96.3308C142.834 96.499 142.794 96.729 142.869 96.9348C143.715 99.2584 145.029 100.912 146.532 101.592C143.422 106.104 142.435 112.077 143.342 118.051C144.297 124.342 147.359 130.694 152.349 135.449C152.595 135.684 152.985 135.675 153.22 135.429C153.454 135.183 153.445 134.793 153.199 134.559C148.419 130.003 145.476 123.905 144.559 117.866C143.642 111.822 144.76 105.897 148.017 101.643C148.147 101.474 148.179 101.249 148.103 101.05C148.027 100.851 147.853 100.705 147.643 100.665C146.57 100.461 145.35 99.4431 144.428 97.4827C151.052 98.2273 157.613 95.5949 164.1 89.6889Z" fill="#1D1D1D"/>
<path d="M94.214 45.2794C78.7617 45.2794 71.0192 33.538 71.0192 21.7884C71.0192 13.8484 74.5325 5.92478 81.5757 1.60507C83.4764 0.444914 83.2542 -0.205099 81.0409 0.0581981C66.0577 1.78608 58.5702 14.0787 58.5702 26.3632C58.5702 39.6185 67.2837 52.8656 84.7188 52.8656C93.0374 52.8656 99.3729 49.8377 103.709 45.2465C104.836 44.0616 103.907 43.4857 102.82 43.8724C100.286 44.7775 97.3982 45.2794 94.1893 45.2794H94.1975H94.214Z" fill="url(#paint0_linear_95_512)"/>
<defs>
<linearGradient id="paint0_linear_95_512" x1="81.3947" y1="0.00882996" x2="81.3947" y2="52.8656" gradientUnits="userSpaceOnUse">
<stop stop-color="#CACFFF"/>
<stop offset="1" stop-color="#DBCAFF" stop-opacity="0.53"/>
</linearGradient>
</defs>
</svg>
