<svg width="20" height="20" viewBox="0 0 20 20" fill="none" xmlns="http://www.w3.org/2000/svg">
<g clip-path="url(#clip0_95_922)">
<path d="M7.04165 1C6.5885 1 6.22115 1.35509 6.22115 1.79312C6.22115 2.23115 6.5885 2.58625 7.04165 2.58625H15.1283C15.808 2.58625 16.359 3.11889 16.359 3.77593V12.7099C16.359 13.1479 16.7264 13.503 17.1795 13.503C17.6327 13.503 18 13.1479 18 12.7099V3.77593C18 2.24283 16.7143 1 15.1283 1H7.04165Z" fill="#808B9F"/>
<path fill-rule="evenodd" clip-rule="evenodd" d="M2 6.14555C2 5.15999 2.82653 4.36103 3.84611 4.36103H12.9877C14.0072 4.36103 14.8338 5.15999 14.8338 6.14556V17.2155C14.8338 18.201 14.0072 19 12.9877 19H3.84611C2.82653 19 2 18.201 2 17.2155V6.14555ZM3.84611 5.94727C3.73282 5.94727 3.64099 6.03605 3.64099 6.14555V17.2155C3.64099 17.325 3.73282 17.4138 3.84611 17.4138H12.9877C13.101 17.4138 13.1928 17.325 13.1928 17.2155V6.14556C13.1928 6.03605 13.101 5.94727 12.9877 5.94727H3.84611Z" fill="#808B9F"/>
</g>
<defs>
<clipPath id="clip0_95_922">
<rect width="20" height="20" fill="white"/>
</clipPath>
</defs>
</svg>
