<svg width="295" height="184" viewBox="0 0 295 184" fill="none" xmlns="http://www.w3.org/2000/svg">
<path d="M89.9316 9.39589C94.1363 100.545 62 152.217 62 152.217C62 152.217 144.994 173.205 184.939 182C220.779 111.239 211.068 6.79733 211.068 6.79733L89.9316 2" stroke="#1D1D1D" stroke-width="1.9155" stroke-miterlimit="10" stroke-linecap="round" stroke-linejoin="round"/>
<path d="M131.979 29.9841L165.517 33.0824" stroke="#1D1D1D" stroke-width="1.9155" stroke-miterlimit="10" stroke-linecap="round" stroke-linejoin="round"/>
<path d="M119.665 42.7773L177.93 48.3742" stroke="#1D1D1D" stroke-width="1.24507" stroke-miterlimit="10" stroke-linecap="round" stroke-linejoin="round"/>
<path d="M108.652 74.7595L184.438 84.8539" stroke="#1D1D1D" stroke-width="1.24507" stroke-miterlimit="10" stroke-linecap="round" stroke-linejoin="round"/>
<path d="M106.05 92.3494L139.287 97.5465" stroke="#1D1D1D" stroke-width="1.24507" stroke-miterlimit="10" stroke-linecap="round" stroke-linejoin="round"/>
<path d="M236.097 109.44C218.176 106.641 197.353 106.042 179.232 107.641C177.631 107.741 176.529 109.24 176.83 110.739L176.93 112.138C177.03 112.738 176.429 113.338 175.728 113.138C173.326 112.638 170.823 112.638 168.42 113.138C167.819 113.238 167.219 112.838 167.219 112.138L167.319 110.739C167.519 109.14 166.318 107.741 164.916 107.641C146.796 106.042 125.972 106.641 108.052 109.44C106.55 109.64 105.449 111.139 105.749 112.738L106.75 118.635C107.151 120.734 109.954 120.334 110.955 120.434C111.055 120.434 111.155 120.534 111.256 120.734L112.457 136.825C113.358 147.818 122.769 156.414 134.081 156.414H143.792C155.105 156.414 164.616 147.818 165.417 136.825L166.418 124.232C166.518 123.232 167.019 122.533 168.02 122.233C170.923 121.333 174.026 121.333 176.83 122.233C177.731 122.433 178.331 123.332 178.331 124.232C178.632 127.83 179.332 136.825 179.332 136.825C180.233 147.818 189.644 156.414 200.957 156.414H210.668C221.981 156.414 231.491 147.818 232.292 136.825L233.494 120.734C233.494 120.634 233.594 120.434 233.794 120.434C234.795 120.334 237.498 120.734 237.999 118.635L239 112.738C238.7 111.239 237.598 109.74 236.097 109.44ZM157.107 136.125C156.607 142.921 150.6 148.218 143.592 148.218H133.881C126.773 148.218 120.866 142.921 120.366 136.125L119.265 121.933C119.164 120.434 120.266 119.134 121.667 119.034C132.88 117.935 144.593 117.635 155.706 118.135C157.207 118.235 158.409 119.534 158.309 121.033L157.107 136.125ZM223.683 136.125C223.182 142.921 217.175 148.218 210.167 148.218H200.456C193.348 148.218 187.442 142.921 186.941 136.125L185.84 121.233C185.74 119.734 186.941 118.335 188.443 118.335C199.555 117.835 211.269 118.035 222.481 119.234C223.983 119.334 225.084 120.634 224.884 122.133L223.683 136.125Z" fill="url(#paint0_linear_95_1557)"/>
<defs>
<linearGradient id="paint0_linear_95_1557" x1="279.005" y1="58.2521" x2="26.6982" y2="220.159" gradientUnits="userSpaceOnUse">
<stop stop-color="#76CAFF"/>
<stop offset="0.1346" stop-color="#76CAFF" stop-opacity="0.9957"/>
<stop offset="0.4888" stop-color="#76CAFF" stop-opacity="0.8821"/>
<stop offset="0.8202" stop-color="#76CAFF" stop-opacity="0"/>
</linearGradient>
</defs>
</svg>
