<svg width="295" height="184" viewBox="0 0 295 184" fill="none" xmlns="http://www.w3.org/2000/svg">
<path fill-rule="evenodd" clip-rule="evenodd" d="M98.7661 88.2367C99.8002 82.5477 100.633 76.7576 101.165 70.9651C104.001 71.2303 106.789 71.5244 109.526 71.8433C108.994 77.8087 108.162 83.8675 107.032 89.8267C106.714 91.9467 104.913 93.3247 102.899 93.3247C102.687 93.3247 102.369 93.3247 102.157 93.2187C99.8258 92.7947 98.3421 90.5687 98.7661 88.2367ZM210.255 87.6008L210.608 79.1424C217.317 70.4443 219.46 59.2606 219.462 48.5262C220.686 54.0541 220.337 61.8313 220.171 65.5495V65.5496L220.171 65.5506C220.143 66.1675 220.121 66.6725 220.111 67.037C219.914 76.6782 219.312 84.6151 218.329 92.9064L210.211 88.1483C210.226 87.9657 210.241 87.7832 210.255 87.6008ZM205.984 125.149L211.17 134.583C209.93 139.769 208.534 144.954 207.076 150.14C206.44 152.048 204.744 153.214 202.943 153.214C202.592 153.214 202.313 153.141 201.987 153.056L201.984 153.055C201.917 153.038 201.849 153.02 201.777 153.002C199.552 152.366 198.28 150.034 198.916 147.702C200.823 141.13 202.519 134.452 204.003 127.88C204.278 126.666 205.014 125.711 205.984 125.149ZM215.957 109.697L213.647 105.515L216.892 103.686C216.637 105.444 216.367 107.25 216.084 109.119C216.054 109.317 216.011 109.51 215.957 109.697ZM213.856 15.0453C213.909 15.2276 213.982 15.4758 214.071 15.7884C213.868 15.1426 213.682 14.5712 213.518 14.0809C213.609 14.2701 213.688 14.468 213.752 14.6737C213.752 14.6916 213.788 14.8158 213.855 15.0432L213.856 15.0453ZM210.043 11.7057C210.316 11.7228 210.584 11.7674 210.843 11.8374L199.641 10.7694L210.043 11.7057ZM181.641 8.94988C181.971 8.97982 182.287 9.04572 182.588 9.14339L173.681 8.29419L181.641 8.94988ZM191.921 182.894C192.239 183 192.663 183 192.981 183C194.676 183 196.266 181.94 197.008 180.244C198.28 176.852 199.551 173.46 200.717 170.174C201.459 167.948 200.293 165.51 198.068 164.768C195.842 164.026 193.405 165.192 192.663 167.418C191.921 169.432 191.179 171.552 190.437 173.672C189.158 173.367 187.878 173.027 186.619 172.693L186.617 172.692L186.617 172.692L186.615 172.692L186.614 172.692L186.613 172.691L186.611 172.691L186.61 172.691L186.61 172.69L186.608 172.69C185.681 172.444 184.764 172.2 183.867 171.976C181.641 171.34 179.31 172.718 178.674 174.944C178.038 177.17 179.416 179.502 181.641 180.138C183.594 180.687 185.547 181.201 187.52 181.721C188.973 182.103 190.438 182.489 191.921 182.894ZM162.883 175.156C163.201 175.262 163.625 175.262 163.943 175.262C165.85 175.262 167.546 173.99 167.97 172.082C168.606 169.856 167.228 167.524 165.002 166.888C161.506 166 158.126 165.112 154.862 164.254L154.861 164.254L154.856 164.253L154.85 164.251L154.848 164.25L154.847 164.25L154.842 164.249L154.836 164.247L154.834 164.247L154.828 164.245C151.872 163.468 149.01 162.716 146.244 162.012C143.913 161.482 141.687 162.86 141.052 165.086C140.522 167.418 141.899 169.644 144.125 170.28L144.447 170.362C150.184 171.823 156.329 173.387 162.883 175.156ZM130.56 162.436C130.03 164.238 128.334 165.51 126.427 165.51C126.109 165.51 125.685 165.51 125.367 165.404C118.266 163.602 112.014 162.012 106.609 160.634C104.383 160.104 103.006 157.772 103.536 155.546C104.065 153.32 106.397 151.942 108.622 152.472C114.027 153.85 120.28 155.44 127.486 157.242C129.712 157.772 131.09 160.104 130.56 162.436ZM89.5468 155.758C89.2288 155.758 88.9109 155.758 88.593 155.652C81.5985 153.956 78.4191 153.214 78.3132 153.214C76.9355 152.896 75.7697 151.942 75.2398 150.564C74.7099 149.186 74.9219 147.702 75.7697 146.536C75.7697 146.536 77.9952 143.462 80.9626 137.95C82.1284 135.936 84.6718 135.194 86.6854 136.254C88.699 137.42 89.4408 139.964 88.381 141.978C87.7505 143.161 87.1199 144.226 86.533 145.218C86.3307 145.559 86.1337 145.892 85.9435 146.218C86.5332 146.366 87.1684 146.513 87.8492 146.671L87.851 146.672L87.8532 146.672L87.8539 146.672C88.6401 146.855 89.487 147.051 90.3946 147.278C92.6201 147.808 94.1038 150.14 93.5739 152.366C93.256 154.486 91.4544 155.758 89.5468 155.758ZM92.6194 128.41C92.0895 128.41 91.5596 128.304 91.0297 128.092C88.9101 127.244 87.8504 124.7 88.6982 122.58C90.9237 117.174 92.9373 111.45 94.6329 105.727C95.2688 103.501 97.6003 102.229 99.9318 102.865C102.157 103.501 103.429 105.833 102.793 108.165C100.992 114.206 98.978 120.142 96.6465 125.866C95.7987 127.456 94.209 128.41 92.6194 128.41Z" fill="url(#paint0_linear_95_1451)"/>
<path d="M76.2997 65.1291C73.0144 62.3732 70.6829 58.6632 69.6231 54.3172C65.8079 38.7354 80.4328 25.3796 88.4871 28.2415C120.068 42.0214 184.079 41.1734 184.079 41.1734" stroke="#1D1D1D" stroke-width="2.12626" stroke-miterlimit="10" stroke-linecap="round" stroke-linejoin="round"/>
<path d="M179.628 86.9648C161.612 80.0749 116.042 71.595 89.4412 70.217C88.0635 70.111 86.7918 70.005 85.4141 69.687" stroke="#1D1D1D" stroke-width="2.12626" stroke-miterlimit="10" stroke-linecap="round" stroke-linejoin="round"/>
<path d="M96.8591 1.53027L212.798 12.0242C212.798 12.0242 219.157 25.804 219.157 51.1377C219.157 61.5926 212 79 205 85" stroke="#1D1D1D" stroke-width="2.12626" stroke-miterlimit="10" stroke-linecap="round" stroke-linejoin="round"/>
<path d="M103.537 32.9059C103.537 27.182 101.417 17.5361 99.0857 8.9502" stroke="#1D1D1D" stroke-width="2.12626" stroke-miterlimit="10" stroke-linecap="round" stroke-linejoin="round"/>
<path d="M112.226 34.9199C112.12 31.5279 111.484 25.168 110.424 22.2C116.465 22.094 119.326 19.232 119.856 14.0381L197.114 21.776C196.796 27.8179 200.823 31.9519 207.606 33.5419C207.606 33.5419 210.997 43.6118 209.513 53.5756" stroke="#1D1D1D" stroke-width="1.38207" stroke-miterlimit="10" stroke-linecap="round" stroke-linejoin="round"/>
<path d="M187.471 86.7535C179.417 81.8776 175.495 75.7297 174.436 67.5677C173.27 58.6638 179.205 46.686 189.166 43.824C195.525 42.022 201.142 46.686 203.155 52.5159C204.109 55.1659 204.215 58.0279 203.579 60.6778C203.367 61.5258 203.049 63.5398 202.202 64.0698C201.46 64.4938 200.294 63.7518 199.552 63.4338C197.751 62.6918 190.544 60.0418 181.748 58.8758" stroke="#1D1D1D" stroke-width="1.38207" stroke-miterlimit="10" stroke-linecap="round" stroke-linejoin="round"/>
<path d="M227 97.9891L187.576 74.8813L187.152 119.931L199.446 113.253L211.739 135.619L225.94 127.775L213.647 105.515L227 97.9891Z" stroke="#1D1D1D" stroke-width="2.12626" stroke-miterlimit="10" stroke-linecap="round" stroke-linejoin="round"/>
<defs>
<linearGradient id="paint0_linear_95_1451" x1="85.0724" y1="179.676" x2="119.996" y2="-21.3449" gradientUnits="userSpaceOnUse">
<stop stop-color="#92D4FF" stop-opacity="0.3"/>
<stop offset="1" stop-color="#92D4FF"/>
</linearGradient>
</defs>
</svg>
