<svg width="295" height="184" viewBox="0 0 295 184" fill="none" xmlns="http://www.w3.org/2000/svg">
<path d="M185.13 183C184.824 183 184.519 183 184.213 182.898C100.703 160.367 69.0936 153.403 68.7877 153.301C67.6661 152.994 66.6464 152.277 66.2386 151.15C65.8307 150.024 65.9327 148.795 66.6464 147.771C67.0543 147.156 107.739 85.8119 92.0358 5.21432C91.8319 4.0878 92.1378 2.96128 92.8516 2.14199C93.5653 1.3227 94.6869 0.913055 95.8086 1.01547L207.359 11.1542C208.888 11.2566 210.112 12.3831 210.52 13.9193C211.132 16.6844 226.222 81.613 188.393 180.849C187.883 182.181 186.558 183 185.13 183ZM75.3135 147.463C86.8356 150.126 119.567 158.114 182.989 175.217C214.496 90.4203 206.441 30.6123 204.198 18.0157L99.8872 8.49148C107.025 50.1728 99.6832 86.2215 92.0358 109.469C86.0199 127.8 78.9842 141.011 75.3135 147.463Z" fill="url(#paint0_linear_95_1897)"/>
<path d="M133.332 44.6426L174.73 49.3535" stroke="#1D1D1D" stroke-width="2.04316" stroke-miterlimit="10" stroke-linecap="round" stroke-linejoin="round"/>
<path d="M121.096 64.3052L185.334 74.1366" stroke="#1D1D1D" stroke-width="1.32805" stroke-miterlimit="10" stroke-linecap="round" stroke-linejoin="round"/>
<path d="M118.649 77.5166L157.906 83.5589" stroke="#1D1D1D" stroke-width="1.32805" stroke-miterlimit="10" stroke-linecap="round" stroke-linejoin="round"/>
<path d="M97.543 139.578L142.102 149.512" stroke="#1D1D1D" stroke-width="1.32805" stroke-miterlimit="10" stroke-linecap="round" stroke-linejoin="round"/>
<path d="M97.543 115.102C97.543 115.102 113.654 74.8539 108.555 24.4677C114.367 24.3653 117.12 21.6002 117.63 16.582L187.782 23.546C187.477 29.3834 191.249 32.6606 197.673 34.1967" stroke="#1D1D1D" stroke-width="1.32805" stroke-miterlimit="10" stroke-linecap="round" stroke-linejoin="round"/>
<path d="M188.496 133.433C186.864 140.192 182.072 157.397 178.911 163.44C174.526 147.873 155.969 149.102 149.341 154.53" stroke="#1D1D1D" stroke-width="1.32805" stroke-miterlimit="10" stroke-linecap="round" stroke-linejoin="round"/>
<path d="M176.226 142.452C178.701 138.603 177.754 133.568 174.111 131.205C170.468 128.842 165.509 130.047 163.034 133.896C160.56 137.745 161.507 142.78 165.15 145.143C168.792 147.505 173.752 146.301 176.226 142.452Z" stroke="#1D1D1D" stroke-width="1.32805" stroke-miterlimit="10" stroke-linecap="round" stroke-linejoin="round"/>
<path d="M99.3774 133.638C108.656 132.511 119.159 125.65 119.974 123.089C120.382 121.963 118.751 121.348 115.794 123.089C110.594 126.162 103.66 134.969 106.005 136.3C108.962 137.939 117.935 133.126 121.912 130.77C122.014 130.77 122.218 130.565 122.422 130.668C123.033 131.077 119.771 133.843 118.139 135.993C117.527 136.915 117.119 137.632 117.425 138.246C117.935 139.065 119.363 138.963 120.892 138.553C123.747 137.837 127.214 136.71 128.336 137.12C129.355 137.427 129.457 138.451 129.151 139.168C128.947 139.987 129.355 141.319 131.497 140.806C138.226 139.475 142.917 138.861 142.917 138.861" stroke="#1D1D1D" stroke-width="1.32805" stroke-linecap="round" stroke-linejoin="round"/>
<defs>
<linearGradient id="paint0_linear_95_1897" x1="122.928" y1="177.512" x2="166.472" y2="-11.8057" gradientUnits="userSpaceOnUse">
<stop stop-color="#9BFFA1" stop-opacity="0.3"/>
<stop offset="1" stop-color="#9BFFA1"/>
</linearGradient>
</defs>
</svg>
