<svg width="168" height="180" viewBox="0 0 168 180" fill="none" xmlns="http://www.w3.org/2000/svg">
<path fill-rule="evenodd" clip-rule="evenodd" d="M125.406 54.7113C124.987 56.219 124.197 59.0782 123.197 62.6942L123.195 62.7003C120.915 70.9466 117.547 83.1254 115.016 92.1894C111.736 88.469 109.346 85.7565 108.433 84.7209C110.976 76.0313 114.134 64.876 115.92 58.5656C116.413 56.8226 116.802 55.4492 117.044 54.5996C118.554 49.303 118.429 45.3936 115.031 40.9797C111.633 36.5659 91.4977 15.0011 87.4707 11.2178C84.8707 8.77521 81.1809 7.24546 75.5154 7.0562C67.9647 6.80396 40.3899 6.61614 36 7.05602C30.9662 7.56041 27.2697 9.38954 24.4223 15.6317C22.4087 20.0457 10.9568 48.6724 8.69172 54.8518C6.69146 60.3087 7.43329 65.8233 11.7119 70.8677C15.0014 74.7459 36 97.4769 39.3979 100.503C42.7957 103.53 47.3261 105.17 53.8701 105.296C58.5533 105.386 75.823 105.278 86.8669 104.935C88.2941 106.846 90.4243 109.725 92.8142 112.956C80.1744 113.255 58.3739 113.096 52.6333 112.986C44.996 112.838 38.4417 110.828 33.1797 105.396C30.6738 102.808 20.7646 91.8876 13.3927 83.7633L13.3901 83.7605C9.89229 79.9056 6.96606 76.6807 5.67353 75.2749C-0.864174 68.1642 -1.18314 59.0561 1.84658 51.6258C4.74659 44.5136 15.276 18.0866 17.3377 12.8126C20.6204 4.41561 26.9265 0.260282 34.874 0.0873371C41.6127 -0.0593036 67.1813 -0.0339082 75.9936 0.260478C82.6056 0.481363 88.6923 2.25152 93.3571 6.40674C98.1721 10.6958 117.87 31.7319 121.951 36.7919C127.047 43.1113 127.307 47.8725 125.406 54.7113Z" fill="url(#paint0_linear_95_237)"/>
<path fill-rule="evenodd" clip-rule="evenodd" d="M40.2522 10.2387C44.7802 10.1357 68.0779 9.93713 73.6619 10.1705C76.1581 10.2748 78.3405 10.6207 80.4308 11.484C82.5239 12.3485 84.4761 13.7114 86.5451 15.7848C90.5567 19.8049 106.938 36.6594 110.5 41.248C114.276 46.1138 113.339 52.1028 112.146 56.5858C110.956 61.0579 107.278 74.093 106.457 76.8778C105.744 79.2981 106.458 81.5473 108.748 84.1446C109.94 85.4957 113.308 89.1933 116.385 92.5608C117.922 94.2429 119.385 95.8401 120.463 97.0169C121.002 97.6053 121.445 98.0885 121.753 98.4247L122.232 98.9476L122.234 98.9492C122.234 98.9493 122.234 98.9498 121.704 99.4379L122.234 98.9492C122.531 99.273 122.51 99.7774 122.187 100.075C121.864 100.373 121.361 100.352 121.064 100.028L121.594 99.5397C121.064 100.028 121.064 100.028 121.064 100.028L121.062 100.026L120.582 99.5024C120.274 99.1661 119.831 98.6827 119.292 98.0942C118.213 96.9171 116.75 95.3193 115.213 93.6366C112.14 90.2745 108.76 86.5638 107.557 85.1994C105.058 82.3659 104.008 79.5632 104.933 76.4264C105.75 73.6541 109.424 60.6326 110.61 56.1754C111.793 51.7292 112.516 46.4401 109.245 42.226C105.759 37.7347 89.4637 20.9622 85.4211 16.9112C83.4632 14.9491 81.681 13.7233 79.8251 12.9568C77.9664 12.1891 75.9851 11.8619 73.5956 11.762C68.0692 11.5311 44.8188 11.7281 40.2883 11.8312C38.0595 11.8819 36.1084 12.3366 34.4228 13.4707C32.7376 14.6046 31.2376 16.4718 30.0113 19.4928C29.6656 20.3444 29.2621 21.336 28.8129 22.4397C25.6378 30.241 20.1837 43.6423 16.7806 52.7895C15.6198 55.9096 15.2373 58.3411 15.4719 60.4441C15.7051 62.5353 16.5573 64.3813 18.0083 66.3201C19.4838 68.2915 24.7414 73.9901 30.1147 79.673C35.4704 85.3373 40.875 90.9174 42.602 92.6214C44.6701 94.6619 46.47 96.0617 48.4988 96.9685C50.5226 97.873 52.8323 98.3127 55.9529 98.3399C62.1035 98.3935 76.2201 98.5705 78.6818 98.6079C81.2705 98.6472 83.5333 99.2181 85.3912 101.479C86.5119 102.843 97.4429 117.404 104.637 126.988C108.057 131.544 110.633 134.975 110.908 135.328C111.605 136.222 112.862 136.592 113.707 136.662C114.636 136.739 116.735 136.873 117.851 136.944C118.547 136.989 119.176 137.217 119.633 137.699C120.088 138.179 120.278 138.81 120.3 139.468C120.336 140.537 120.336 149.531 120.336 150.909V150.924C120.336 151.346 120.495 151.604 120.715 151.781C120.96 151.979 121.326 152.107 121.734 152.134C122.252 152.169 123.694 152.241 125.019 152.304C125.679 152.336 126.306 152.365 126.768 152.387L127.513 152.422L127.523 152.422L127.526 152.422C127.965 152.442 128.305 152.815 128.284 153.254C128.264 153.694 127.893 154.034 127.454 154.014L126.694 153.978C126.231 153.957 125.604 153.927 124.943 153.895C123.626 153.832 122.164 153.76 121.629 153.724C120.985 153.681 120.28 153.475 119.718 153.022C119.131 152.549 118.746 151.839 118.746 150.924C118.746 149.574 118.746 140.559 118.711 139.522C118.698 139.125 118.592 138.913 118.481 138.797C118.373 138.683 118.167 138.561 117.751 138.534C116.643 138.464 114.524 138.328 113.576 138.25C112.541 138.164 110.75 137.712 109.656 136.309C109.345 135.91 106.608 132.265 103.032 127.5C95.8455 117.926 85.2686 103.835 84.1641 102.491C82.7143 100.727 80.9894 100.236 78.6578 100.201C76.1991 100.163 62.086 99.9863 55.9391 99.9327C52.6724 99.9043 50.1315 99.4424 47.8513 98.4233C45.5762 97.4064 43.619 95.8603 41.4868 93.7565C39.7384 92.0313 34.3172 86.4337 28.9608 80.7686C23.6221 75.1223 18.2815 69.34 16.7367 67.2759C15.1674 65.1791 14.1652 63.0701 13.8921 60.621C13.6203 58.1837 14.0797 55.4896 15.2912 52.233C18.7037 43.0603 24.1692 29.6314 27.3426 21.8342C27.7913 20.7318 28.1941 19.7419 28.5389 18.8926C29.85 15.6629 31.5216 13.5041 33.5367 12.1483C35.5515 10.7927 37.8292 10.2939 40.2522 10.2387ZM57.4705 22.753C61.5765 24.086 65.1725 27.262 66.3494 32.4165C67.5927 37.8616 65.0144 42.2908 61.0177 44.7236C57.0468 47.1406 51.6224 47.6323 46.9963 45.269C42.3498 42.8953 40.2463 38.6821 40.1601 34.5291C40.0745 30.4079 41.9764 26.292 45.3855 24.0838C48.7544 21.9015 53.3932 21.4293 57.4705 22.753ZM56.9806 24.2684C53.3054 23.0752 49.1717 23.5279 46.2484 25.4215C43.3653 27.2891 41.6736 30.8474 41.7493 34.496C41.8244 38.1129 43.6372 41.7651 47.7182 43.8499C51.8196 45.9451 56.659 45.5129 60.1925 43.3621C63.7001 41.2271 65.8668 37.4444 64.7999 32.7718C63.7639 28.2349 60.6271 25.4522 56.9806 24.2684ZM128.35 107.22C128.68 106.93 129.182 106.962 129.472 107.293C134.287 112.779 142.182 121.694 148.875 129.252C154.935 136.095 160.011 141.826 160.922 142.891C162.394 144.613 163.301 146.126 163.704 148.078C164.179 150.378 167.164 165.924 167.646 168.865C167.904 170.438 168.07 171.666 167.971 172.682C167.864 173.77 167.458 174.603 166.666 175.396C165.287 176.778 163.468 178.19 162.097 179.25C161.434 179.764 160.764 179.983 160.09 179.999C159.445 180.014 158.845 179.84 158.332 179.665C157.353 179.33 151.912 177.023 146.46 174.702C145.475 174.283 144.489 173.863 143.527 173.453C139.12 171.576 135.201 169.906 134.17 169.498C132.427 168.808 131.735 167.255 131.672 165.798C131.621 164.62 131.569 162.731 131.516 160.845C131.468 159.143 131.421 157.442 131.375 156.27C131.358 155.831 131.699 155.46 132.138 155.443C132.577 155.426 132.946 155.768 132.963 156.208C133.012 157.445 133.059 159.145 133.106 160.836C133.157 162.686 133.208 164.524 133.26 165.729C133.304 166.746 133.751 167.619 134.754 168.016C135.806 168.433 139.754 170.115 144.16 171.992C145.12 172.401 146.102 172.819 147.081 173.236C152.586 175.579 157.939 177.847 158.846 178.157C159.324 178.321 159.701 178.415 160.052 178.407C160.375 178.399 160.721 178.303 161.126 177.99C162.513 176.917 164.248 175.567 165.542 174.27C166.087 173.724 166.32 173.228 166.389 172.526C166.465 171.753 166.341 170.731 166.078 169.123C165.601 166.213 162.62 150.692 162.147 148.4C161.818 146.806 161.087 145.532 159.715 143.928C158.809 142.868 153.759 137.167 147.719 130.347C141.025 122.787 133.114 113.854 128.278 108.345C127.988 108.014 128.02 107.511 128.35 107.22Z" fill="#1D1D1D"/>
<path fill-rule="evenodd" clip-rule="evenodd" d="M57.9381 32.2559C54.7443 28.9571 49.7477 28.8118 46.1935 31.3202C45.8795 31.5418 45.4456 31.4664 45.2245 31.1517C45.0033 30.837 45.0786 30.4022 45.3926 30.1806C49.4463 27.3198 55.2165 27.4433 58.9363 31.2853C60.8142 33.225 61.4986 35.4655 61.5567 37.4207C61.6138 39.3447 61.0647 41.0541 60.3865 41.9601C60.1561 42.268 59.7202 42.3304 59.4129 42.0994C59.1056 41.8685 59.0434 41.4317 59.2738 41.1238C59.7208 40.5266 60.2165 39.1488 60.1664 37.4622C60.1173 35.8068 59.5427 33.9133 57.9381 32.2559ZM20.2182 56.3125C20.5949 56.388 20.8391 56.7551 20.7638 57.1325C20.5423 58.2422 20.6581 60.5258 22.1794 62.2762C23.3699 63.6459 29.1948 69.9397 34.9866 76.1171C37.8796 79.2027 40.7594 82.254 43.0411 84.6396C45.3419 87.0453 46.994 88.7306 47.4612 89.1256C49.3659 90.7361 52.43 92.0587 55.2223 92.1778C56.6853 92.2402 63.0531 92.2959 69.3171 92.3475C69.7726 92.3513 70.2275 92.355 70.68 92.3587C76.4241 92.4059 81.7691 92.4497 82.6608 92.4933C84.063 92.5618 85.1135 92.9265 85.9816 93.4974C86.8323 94.0568 87.4715 94.7926 88.0711 95.5199C88.4771 96.0125 89.0982 96.7514 89.8279 97.6196C91.8278 99.9989 94.6432 103.349 96.0808 105.254C96.3124 105.561 96.2519 105.998 95.9455 106.23C95.6391 106.462 95.203 106.402 94.9714 106.095C93.558 104.221 90.7978 100.937 88.8011 98.5618C88.0585 97.6783 87.4215 96.9205 86.9987 96.4076C86.4028 95.6846 85.8779 95.0963 85.2185 94.6626C84.5764 94.2404 83.7707 93.943 82.593 93.8854C81.7314 93.8433 76.3801 93.7994 70.5816 93.7518C70.1582 93.7483 69.7323 93.7448 69.3057 93.7413C63.0635 93.6899 56.6575 93.6341 55.1631 93.5704C52.0407 93.4372 48.6866 91.9854 46.5643 90.1909C46.0248 89.7347 44.3041 87.9744 42.037 85.6041C39.7507 83.2137 36.8674 80.1586 33.973 77.0715C28.1899 70.9034 22.3427 64.5862 21.1306 63.1916C19.254 61.0325 19.118 58.2718 19.3999 56.8592C19.4752 56.4818 19.8416 56.237 20.2182 56.3125ZM106.312 97.7547C106.206 98.2353 106.295 98.9041 106.86 99.7322C107.414 100.545 109.44 102.883 111.805 105.523C114.151 108.142 116.78 111.002 118.495 112.826C118.759 113.106 118.746 113.547 118.466 113.811C118.187 114.075 117.747 114.062 117.483 113.782C115.759 111.949 113.123 109.08 110.77 106.454C108.437 103.85 106.331 101.427 105.712 100.519C104.986 99.455 104.745 98.3977 104.954 97.4536C105.162 96.5123 105.793 95.7951 106.589 95.3718C108.173 94.5297 110.48 94.7948 112.04 96.6495C113.047 97.8465 119.591 105.189 127.659 114.241C136.885 124.594 148.106 137.184 155.321 145.379C155.575 145.668 155.547 146.108 155.259 146.363C154.971 146.617 154.532 146.59 154.278 146.301C147.094 138.141 135.9 125.581 126.676 115.231C118.574 106.14 111.991 98.754 110.977 97.548C109.831 96.1868 108.237 96.0736 107.241 96.603C106.747 96.8654 106.419 97.2714 106.312 97.7547ZM132.216 150.614C132.275 150.233 132.63 149.972 133.009 150.031L132.904 150.72L132.798 151.408C132.419 151.35 132.158 150.994 132.216 150.614ZM132.904 150.72L132.798 151.408L132.8 151.409L132.9 151.424L133.177 151.467C133.411 151.504 133.732 151.555 134.082 151.611C134.787 151.725 135.595 151.86 136.048 151.95C136.347 152.01 136.508 152.113 136.606 152.213C136.708 152.317 136.792 152.469 136.851 152.705C136.956 153.125 136.951 153.631 136.945 154.271C136.943 154.431 136.942 154.599 136.942 154.776C136.942 155.849 136.983 160.792 137.132 163.248C137.178 163.994 137.363 164.707 137.774 165.308C138.192 165.919 138.806 166.36 139.608 166.613C141.765 167.293 153.07 171.348 157.361 173.026C157.719 173.166 158.122 172.989 158.262 172.63C158.401 172.272 158.225 171.868 157.867 171.728C153.559 170.043 142.222 165.977 140.026 165.284C139.485 165.113 139.143 164.844 138.922 164.52C138.694 164.187 138.556 163.74 138.521 163.163C138.374 160.754 138.333 155.851 138.333 154.776C138.333 154.647 138.334 154.51 138.336 154.37C138.344 153.719 138.353 152.979 138.2 152.367C138.101 151.969 137.924 151.568 137.599 151.237C137.271 150.902 136.841 150.687 136.32 150.583C135.837 150.487 135.004 150.348 134.303 150.235C133.95 150.178 133.627 150.127 133.392 150.09L133.113 150.047L133.011 150.031L133.009 150.031L132.904 150.72Z" fill="#1D1D1D"/>
<defs>
<linearGradient id="paint0_linear_95_237" x1="38.8602" y1="4.51223" x2="97.891" y2="103.512" gradientUnits="userSpaceOnUse">
<stop stop-color="#54A5DC"/>
<stop offset="1" stop-color="#EC8986"/>
</linearGradient>
</defs>
</svg>
