<svg width="295" height="184" viewBox="0 0 295 184" fill="none" xmlns="http://www.w3.org/2000/svg">
<path d="M93.8543 21.1387L85.1221 22.8331C84.5996 22.9309 84.0952 22.5858 83.9977 22.0632C83.8996 21.5406 84.2444 21.0365 84.7669 20.9387L93.5191 19.3517C94.0119 19.2591 94.4872 19.5843 94.5796 20.0775C94.6726 20.5707 94.3471 21.0461 93.8543 21.1387Z" fill="#1D1D1D"/>
<path d="M143.818 12.745L151.288 11.6883C151.785 11.6218 152.135 11.1637 152.068 10.6667C152.002 10.169 151.544 9.81948 151.046 9.88657L143.563 10.8347C143.036 10.9056 142.665 11.3905 142.735 11.9176C142.806 12.4454 143.291 12.8159 143.818 12.745Z" fill="#1D1D1D"/>
<path d="M180.605 158.069L148.086 165.158C147.566 165.269 147.053 164.939 146.94 164.419C146.828 163.899 147.159 163.386 147.679 163.273L180.222 156.292C180.712 156.185 181.196 156.498 181.302 156.988C181.408 157.479 181.096 157.963 180.605 158.069Z" fill="#1D1D1D"/>
<path fill-rule="evenodd" clip-rule="evenodd" d="M171.378 133.373C171.852 132.501 172.743 131.881 173.906 131.514C174.833 131.227 176.259 130.897 177.805 130.577C179.681 130.187 181.736 129.807 183.278 129.522L183.282 129.521L183.647 129.454C185.004 129.202 186.04 129.296 186.861 129.62C187.921 130.038 188.641 130.841 189.211 131.876C189.698 132.757 190.462 134.421 191.202 136.174C191.863 137.736 192.505 139.367 192.912 140.576C193.391 141.998 193.373 143.035 192.973 143.799C192.539 144.628 191.634 145.181 190.236 145.517C188.965 145.824 186.429 146.394 184.074 146.896C182.452 147.243 180.917 147.557 179.935 147.727C178.637 147.953 177.59 147.861 176.703 147.351C175.917 146.898 175.245 146.108 174.655 144.849C174.031 143.517 173.412 142.092 172.856 140.733C172.212 139.158 171.652 137.672 171.27 136.52C170.838 135.22 170.939 134.181 171.378 133.373ZM178.032 131.655C176.529 131.975 175.142 132.301 174.241 132.585C173.385 132.85 172.703 133.266 172.351 133.905C172.031 134.487 172.003 135.237 172.31 136.177C172.682 137.312 173.225 138.777 173.851 140.328C174.394 141.674 175 143.084 175.611 144.404C176.082 145.419 176.593 146.081 177.224 146.447C177.918 146.849 178.743 146.883 179.761 146.709C180.733 146.543 182.255 146.238 183.863 145.9C186.208 145.405 188.734 144.839 190.001 144.535C191.04 144.286 191.758 143.949 192.08 143.332C192.381 142.754 192.315 141.974 191.952 140.901C191.549 139.713 190.914 138.108 190.26 136.575C189.531 134.864 188.778 133.241 188.299 132.382C187.85 131.574 187.306 130.926 186.476 130.603C185.803 130.341 184.954 130.294 183.844 130.505L183.535 130.564L183.532 130.564C181.992 130.857 179.921 131.252 178.032 131.655Z" fill="#1D1D1D"/>
<path fill-rule="evenodd" clip-rule="evenodd" d="M150.287 137.225C149.065 137.611 148.247 138.418 147.885 139.501C147.585 140.396 147.602 141.495 148.007 142.714C148.391 143.87 148.85 145.223 149.401 146.675C149.874 147.918 150.415 149.234 151.037 150.56C151.639 151.844 152.372 152.618 153.228 153.041C154.155 153.5 155.24 153.551 156.509 153.33C157.904 153.088 160.428 152.535 162.714 151.976C164.386 151.566 165.931 151.152 166.817 150.85C168.108 150.41 168.942 149.712 169.301 148.719C169.598 147.896 169.567 146.842 169.117 145.507C168.635 144.076 167.935 142.182 167.252 140.499C166.708 139.161 166.175 137.956 165.768 137.218C165.194 136.176 164.385 135.4 163.24 135.012C162.371 134.717 161.295 134.648 159.961 134.891C158.629 135.132 156.838 135.527 155.099 135.946C153.22 136.399 151.401 136.88 150.287 137.225ZM150.622 138.296C151.719 137.95 153.509 137.467 155.359 137.011C157.074 136.588 158.84 136.187 160.154 135.942C161.272 135.734 162.173 135.768 162.904 136.012C163.792 136.308 164.409 136.919 164.856 137.723C165.253 138.435 165.772 139.597 166.301 140.888C166.981 142.548 167.677 144.419 168.156 145.831C168.515 146.891 168.588 147.723 168.352 148.377C168.09 149.105 167.439 149.572 166.491 149.894C165.445 150.249 163.463 150.762 161.453 151.233C159.494 151.692 157.508 152.112 156.334 152.312C155.312 152.487 154.436 152.478 153.693 152.107C153.016 151.769 152.465 151.132 151.993 150.115C151.389 148.81 150.864 147.517 150.407 146.295C149.867 144.857 149.421 143.517 149.046 142.371C148.734 141.415 148.697 140.555 148.935 139.855C149.19 139.104 149.772 138.56 150.622 138.296Z" fill="#1D1D1D"/>
<path fill-rule="evenodd" clip-rule="evenodd" d="M123.413 144.19C123.837 143.37 124.68 142.8 125.862 142.428C126.787 142.141 128.284 141.787 129.911 141.441C132.056 140.986 134.43 140.544 136.003 140.288C137.489 140.044 138.449 140.248 139.149 140.678C139.974 141.186 140.446 142.042 140.973 143.002L141.042 143.127C141.532 144.014 142.223 145.523 142.894 147.128C143.484 148.541 144.059 150.027 144.464 151.229C144.933 152.622 144.916 153.734 144.518 154.583C144.073 155.531 143.144 156.189 141.744 156.52C140.457 156.827 138.618 157.239 136.796 157.629C134.908 158.034 133.038 158.415 131.815 158.627C130.516 158.854 129.47 158.761 128.582 158.251C127.796 157.799 127.124 157.009 126.535 155.749C126.032 154.676 125.566 153.512 125.142 152.363C124.602 150.894 124.131 149.45 123.739 148.251L123.736 148.241L123.736 148.239C123.615 147.87 123.502 147.524 123.397 147.208C122.968 145.914 123.028 144.936 123.413 144.19ZM130.142 142.518C128.557 142.863 127.098 143.214 126.196 143.499C125.347 143.762 124.704 144.115 124.397 144.702C124.118 145.235 124.135 145.935 124.439 146.865C124.546 147.191 124.661 147.55 124.784 147.934L124.784 147.936C125.165 149.122 125.623 150.547 126.148 151.995C126.556 153.118 127.004 154.255 127.49 155.304C127.961 156.32 128.471 156.982 129.104 157.348C129.797 157.75 130.622 157.784 131.639 157.61C132.639 157.44 134.074 157.158 135.595 156.842C137.712 156.402 139.996 155.896 141.511 155.538C142.55 155.292 143.275 154.858 143.605 154.155C143.914 153.496 143.869 152.634 143.503 151.553C143.103 150.373 142.535 148.912 141.95 147.525C141.291 145.963 140.612 144.494 140.132 143.632C140.07 143.521 140.01 143.411 139.951 143.302C139.567 142.595 139.219 141.954 138.6 141.578C138.06 141.249 137.317 141.148 136.178 141.34C134.619 141.603 132.267 142.055 130.142 142.518Z" fill="#1D1D1D"/>
<path fill-rule="evenodd" clip-rule="evenodd" d="M134.802 83.0309C133.598 83.3491 132.723 83.8764 132.255 84.669C131.823 85.3997 131.712 86.3786 132.089 87.7005C132.364 88.6647 132.759 89.8017 133.222 91.0242C133.803 92.5595 134.489 94.2308 135.174 95.8633C135.714 97.1543 136.361 97.9749 137.14 98.4601C138.01 99.0002 139.059 99.1354 140.373 98.9673C141.371 98.8395 142.851 98.6024 144.407 98.3393C146.679 97.955 149.11 97.5143 150.414 97.2704C151.631 97.0431 152.607 96.6446 153.146 95.9149C153.641 95.2455 153.815 94.2779 153.395 92.8302C152.975 91.3785 152.324 89.4113 151.683 87.6626C151.176 86.2762 150.676 85.0264 150.299 84.272C149.781 83.2332 149.182 82.2753 148.184 81.691C147.393 81.2273 146.344 80.9876 144.861 81.1623C143.503 81.3216 141.631 81.6275 139.808 81.967C137.847 82.3317 135.944 82.735 134.802 83.0309ZM135.086 84.1158C136.209 83.818 138.082 83.412 140.011 83.0426C141.806 82.6983 143.651 82.3856 144.988 82.2212C146.174 82.076 147.019 82.2318 147.654 82.6004C148.476 83.0774 148.941 83.8868 149.37 84.7383C149.738 85.4674 150.227 86.6757 150.723 88.0165C151.36 89.7403 152.006 91.6808 152.424 93.1128C152.724 94.1438 152.69 94.8395 152.337 95.3165C151.927 95.8707 151.154 96.106 150.229 96.2782C148.928 96.5194 146.504 96.9571 144.239 97.3346C142.698 97.5912 141.231 97.8199 140.245 97.9426C139.208 98.072 138.375 98.0032 137.692 97.5754C137.066 97.1827 136.578 96.4985 136.147 95.4583C135.476 93.8338 134.801 92.1713 134.232 90.644C133.787 89.4518 133.407 88.3431 133.143 87.4021C132.878 86.4572 132.897 85.7561 133.207 85.2354C133.549 84.6649 134.215 84.3411 135.086 84.1158Z" fill="#1D1D1D"/>
<path fill-rule="evenodd" clip-rule="evenodd" d="M106.979 89.8443C107.501 89.0028 108.426 88.4268 109.61 88.1127C110.562 87.8664 112.019 87.5993 113.599 87.3458C115.569 87.0293 117.731 86.7308 119.318 86.5117L119.563 86.4779C120.938 86.2864 121.976 86.4219 122.788 86.7763C123.847 87.2392 124.541 88.075 125.07 89.137C125.521 90.0383 126.216 91.7342 126.883 93.5173C127.478 95.106 128.051 96.7647 128.406 97.9907C128.827 99.443 128.756 100.484 128.307 101.232C127.827 102.031 126.889 102.538 125.472 102.811C124.172 103.061 121.578 103.522 119.172 103.922C117.515 104.197 115.946 104.444 114.946 104.573C113.631 104.741 112.582 104.606 111.712 104.065C110.933 103.58 110.287 102.759 109.746 101.469C109.178 100.112 108.618 98.661 108.12 97.2795C107.542 95.6783 107.046 94.1685 106.713 93.0007C106.335 91.6743 106.49 90.6351 106.979 89.8443ZM113.776 88.4323C112.239 88.6881 110.82 88.953 109.895 89.1976C109.018 89.4252 108.309 89.8104 107.92 90.4302C107.565 90.9974 107.499 91.7477 107.766 92.7024C108.089 93.8528 108.57 95.3395 109.131 96.9171C109.617 98.2846 110.164 99.72 110.719 101.064C111.149 102.104 111.638 102.788 112.264 103.181C112.948 103.609 113.78 103.677 114.817 103.548C115.808 103.424 117.364 103.186 119.006 102.917C121.403 102.525 123.986 102.068 125.281 101.82C126.342 101.617 127.084 101.312 127.442 100.713C127.78 100.15 127.752 99.3661 127.433 98.2734C127.081 97.0689 126.515 95.4383 125.925 93.8776C125.268 92.1375 124.583 90.4834 124.139 89.6047C123.721 88.7757 123.198 88.1021 122.368 87.7439C121.699 87.4555 120.842 87.3732 119.711 87.5353L119.303 87.5942L119.3 87.5947C117.738 87.8198 115.669 88.1182 113.776 88.4323Z" fill="#1D1D1D"/>
<path fill-rule="evenodd" clip-rule="evenodd" d="M149.281 51.9464C148.113 52.2962 147.213 52.904 146.727 53.7684C146.275 54.5704 146.158 55.6074 146.57 56.9139C146.935 58.0709 147.472 59.5657 148.092 61.1489C148.628 62.516 149.226 63.9493 149.83 65.2899C150.4 66.5577 151.061 67.3576 151.84 67.8213C152.72 68.3438 153.765 68.451 155.066 68.2434C156.049 68.0869 157.59 67.7949 159.217 67.4725C161.579 67.0035 164.123 66.4693 165.399 66.1811C166.8 65.8658 167.715 65.3261 168.161 64.5034C168.572 63.7451 168.606 62.7086 168.149 61.2801C167.76 60.0654 167.142 58.4248 166.505 56.8539C165.791 55.0908 165.052 53.4157 164.579 52.5271C164.025 51.4847 163.316 50.671 162.262 50.2376C161.446 49.9024 160.412 49.7944 159.052 50.0258L158.698 50.0859C157.15 50.349 155.082 50.7004 153.193 51.0648C151.642 51.3635 150.212 51.6723 149.281 51.9464ZM149.6 53.0216C150.505 52.7506 151.896 52.4452 153.404 52.1462C155.296 51.7707 157.37 51.4068 158.913 51.1359L159.233 51.0796C160.346 50.8844 161.195 50.9428 161.864 51.2145C162.689 51.5497 163.223 52.2056 163.66 53.019C164.125 53.8852 164.854 55.5194 165.557 57.2398C166.189 58.7834 166.799 60.3963 167.183 61.5901C167.531 62.6686 167.585 63.45 167.275 64.0229C166.943 64.6354 166.22 64.9629 165.178 65.1973C163.907 65.4818 161.373 66.0121 159.02 66.4732C157.408 66.7893 155.88 67.0718 154.906 67.2238C153.886 67.3828 153.061 67.338 152.374 66.9259C151.748 66.5505 151.247 65.8818 150.791 64.8589C150.201 63.5318 149.616 62.1121 149.094 60.7593C148.491 59.1986 147.969 57.7264 147.615 56.5865C147.322 55.6425 147.362 54.8922 147.691 54.3147C148.052 53.681 148.74 53.2749 149.6 53.0216Z" fill="#1D1D1D"/>
<path fill-rule="evenodd" clip-rule="evenodd" d="M123.143 59.5589C123.522 58.482 124.351 57.6867 125.579 57.3189C126.697 56.9896 128.523 56.5342 130.41 56.1082C132.154 55.7143 133.951 55.3452 135.286 55.1228C136.624 54.8995 137.697 54.9837 138.563 55.2912C139.703 55.6955 140.499 56.4834 141.057 57.5334C141.454 58.2778 141.969 59.4902 142.492 60.8358C143.15 62.5277 143.822 64.4321 144.282 65.869C144.711 67.2112 144.727 68.2653 144.416 69.0845C144.043 70.0714 143.199 70.7571 141.901 71.1778C141.011 71.4675 139.461 71.8597 137.782 72.2457C135.489 72.7724 132.956 73.2887 131.558 73.5109C130.285 73.7139 129.202 73.6462 128.283 73.1751C127.433 72.7395 126.71 71.9558 126.128 70.6624C125.527 69.3275 125.005 68.0042 124.551 66.7539C124.021 65.2949 123.583 63.9355 123.216 62.7734C122.83 61.5494 122.83 60.45 123.143 59.5589ZM130.653 57.1767C128.796 57.6066 126.999 58.064 125.898 58.3941C125.044 58.6457 124.453 59.182 124.187 59.9283C123.939 60.6253 123.962 61.4859 124.26 62.4466C124.618 63.5969 125.044 64.9439 125.561 66.3894C126.001 67.6182 126.506 68.9183 127.09 70.2313C127.547 71.2562 128.089 71.9009 128.76 72.2482C129.498 72.6297 130.373 72.6506 131.397 72.4913C132.575 72.3068 134.566 71.9156 136.532 71.4847C138.549 71.0423 140.539 70.5584 141.59 70.2186C142.542 69.9095 143.2 69.4528 143.474 68.7284C143.719 68.0777 143.659 67.244 143.316 66.1797C142.859 64.7604 142.191 62.8795 141.536 61.2092C141.026 59.9114 140.525 58.7421 140.139 58.0246C139.704 57.2143 139.095 56.5946 138.212 56.2858C137.486 56.0312 136.585 55.9844 135.464 56.1768C134.147 56.4033 132.375 56.7786 130.653 57.1767Z" fill="#1D1D1D"/>
<path fill-rule="evenodd" clip-rule="evenodd" d="M101.078 62.1711C99.8905 62.5269 99.0396 63.0839 98.6033 63.898C98.2066 64.6383 98.1315 65.615 98.5418 66.9157C98.6462 67.2458 98.7586 67.6085 98.8787 67.9963C99.25 69.1942 99.6957 70.6325 100.21 72.095C100.616 73.2498 101.063 74.4202 101.551 75.5008C102.121 76.7687 102.782 77.5686 103.561 78.0315C104.44 78.5547 105.485 78.662 106.787 78.4544C108.013 78.2592 109.889 77.9044 111.782 77.5273C113.61 77.1626 115.455 76.7777 116.747 76.4897C118.151 76.1782 119.089 75.5341 119.549 74.5925C119.96 73.7499 119.993 72.6383 119.545 71.2375C119.159 70.0306 118.606 68.5356 118.038 67.1154C117.391 65.5005 116.722 63.9819 116.246 63.0875L116.181 62.9648C115.667 61.9966 115.208 61.1317 114.39 60.612C113.696 60.1715 112.739 59.9553 111.25 60.1772C109.673 60.4105 107.293 60.8182 105.141 61.2429C103.509 61.565 102.007 61.8978 101.078 62.1711ZM101.397 63.2463C102.302 62.9753 103.766 62.6451 105.357 62.322C107.489 61.8894 109.847 61.4714 111.41 61.2312C112.551 61.0558 113.293 61.167 113.827 61.5027C114.44 61.8882 114.778 62.533 115.152 63.2452L115.152 63.246C115.209 63.3556 115.268 63.4667 115.328 63.5788C115.796 64.4487 116.453 65.9259 117.088 67.4975C117.652 68.8923 118.197 70.3615 118.58 71.5482C118.93 72.6345 118.961 73.4965 118.642 74.1509C118.302 74.8496 117.57 75.2739 116.528 75.5044C115.007 75.8405 112.716 76.3138 110.593 76.7233C109.067 77.0176 107.628 77.2789 106.626 77.4347C105.606 77.5938 104.782 77.5489 104.094 77.1369C103.468 76.7615 102.967 76.0927 102.512 75.0698C102.042 74.0137 101.61 72.8705 101.22 71.7423C100.712 70.2737 100.273 68.8302 99.908 67.6317L99.9074 67.6299C99.7938 67.2564 99.6873 66.9067 99.5883 66.5875C99.2981 65.6539 99.2925 64.9534 99.5796 64.4244C99.8953 63.8413 100.543 63.4979 101.397 63.2463Z" fill="#1D1D1D"/>
<path fill-rule="evenodd" clip-rule="evenodd" d="M137.234 27.214C137.703 26.4214 138.577 25.894 139.781 25.5759C140.731 25.3296 142.2 25.0515 143.793 24.7896C145.895 24.4442 148.212 24.1245 149.816 23.9364C151.299 23.7617 152.348 24.0014 153.139 24.4657C154.137 25.0501 154.736 26.0074 155.254 27.0461C155.631 27.8011 156.131 29.051 156.639 30.4374C157.279 32.1861 157.93 34.1533 158.351 35.6049C158.77 37.0527 158.597 38.0203 158.102 38.689C157.563 39.4194 156.587 39.8172 155.37 40.0445C154.443 40.2181 152.957 40.4489 151.362 40.6827C149.17 41.004 146.773 41.3308 145.353 41.5123C144.038 41.6803 142.989 41.5452 142.12 41.005C141.34 40.5199 140.693 39.6993 140.153 38.4083C139.469 36.7757 138.782 35.1045 138.201 33.5692C137.739 32.3467 137.343 31.2097 137.068 30.2455C136.691 28.9236 136.802 27.9446 137.234 27.214ZM143.975 25.8753C142.423 26.1389 140.991 26.4155 140.065 26.6601C139.195 26.8854 138.528 27.2099 138.187 27.7804C137.876 28.3011 137.858 29.0021 138.122 29.9471C138.386 30.8881 138.766 31.9968 139.211 33.189C139.781 34.7163 140.455 36.3788 141.127 38.0032C141.557 39.0435 142.046 39.7277 142.672 40.1203C143.355 40.5482 144.187 40.617 145.223 40.4877C146.639 40.311 149.03 39.9936 151.216 39.6778C152.796 39.4499 154.268 39.223 155.184 39.0524C156.109 38.8808 156.883 38.6455 157.292 38.0906C157.645 37.6137 157.679 36.9185 157.379 35.8876C156.96 34.4556 156.314 32.5151 155.678 30.7906C155.182 29.4504 154.693 28.2415 154.325 27.5125C153.896 26.6615 153.431 25.8515 152.61 25.3752C151.974 25.0066 151.129 24.8508 149.943 24.9953C148.353 25.1908 146.057 25.5208 143.975 25.8753Z" fill="#1D1D1D"/>
<path fill-rule="evenodd" clip-rule="evenodd" d="M116.045 29.7659C114.86 30.08 113.935 30.656 113.414 31.4974C112.924 32.2883 112.769 33.3275 113.147 34.6539C113.48 35.8217 113.976 37.3315 114.554 38.9327C115.052 40.3149 115.612 41.7649 116.181 43.1219C116.72 44.4129 117.367 45.2342 118.147 45.7187C119.016 46.2588 120.065 46.3946 121.38 46.2259C122.172 46.1247 123.354 45.9258 124.668 45.6887C126.774 45.309 129.219 44.831 130.92 44.4986L130.921 44.4983C131.446 44.3958 131.899 44.3072 132.25 44.2396C133.666 43.9669 134.605 43.4594 135.084 42.6604C135.533 41.912 135.604 40.8715 135.184 39.4192C134.829 38.1931 134.256 36.5345 133.661 34.9457C132.994 33.1626 132.299 31.4668 131.848 30.5654C131.318 29.5035 130.625 28.6676 129.566 28.2054C128.754 27.851 127.716 27.7155 126.34 27.907C124.733 28.1294 122.332 28.5156 120.158 28.9125C118.51 29.2128 116.993 29.5204 116.045 29.7659ZM116.329 30.8508C117.258 30.6054 118.744 30.2977 120.358 29.9947C122.514 29.5894 124.896 29.1928 126.49 28.963C127.621 28.801 128.477 28.8833 129.146 29.1723C129.977 29.5305 130.499 30.2035 130.918 31.0331C131.361 31.9118 132.047 33.5659 132.703 35.306C133.293 36.8667 133.859 38.4973 134.211 39.7018C134.529 40.7946 134.558 41.5786 134.221 42.1417C133.862 42.7399 133.12 43.045 132.06 43.2483C131.722 43.3129 131.29 43.3969 130.791 43.494L130.786 43.4948C129.369 43.7704 127.414 44.1504 125.57 44.4876C123.858 44.801 122.243 45.077 121.251 45.2013C120.215 45.33 119.382 45.2618 118.699 44.834C118.073 44.4413 117.584 43.7572 117.154 42.7169C116.598 41.3732 116.051 39.9377 115.566 38.5702C115.004 36.9927 114.523 35.506 114.201 34.3555C113.933 33.4008 113.999 32.6506 114.354 32.0834C114.743 31.4636 115.452 31.0784 116.329 30.8508Z" fill="#1D1D1D"/>
<path fill-rule="evenodd" clip-rule="evenodd" d="M88.9448 36.997C89.3636 35.9394 90.2251 35.1738 91.4722 34.8433C92.6157 34.5472 94.478 34.1448 96.4007 33.7736C98.1797 33.4304 100.01 33.1135 101.368 32.9304C102.722 32.7469 103.8 32.8598 104.663 33.1884C105.81 33.6247 106.593 34.4371 107.126 35.5048C107.503 36.2605 107.986 37.4873 108.473 38.8475C109.085 40.5579 109.705 42.4815 110.125 43.9319C110.519 45.2951 110.499 46.3546 110.153 47.1674C109.741 48.134 108.868 48.7896 107.549 49.1709C106.639 49.4347 105.057 49.7812 103.346 50.1184C101.008 50.5785 98.4279 51.0214 97.0053 51.203C95.7193 51.368 94.6305 51.2714 93.7199 50.7803C92.8675 50.3218 92.1575 49.5156 91.6072 48.2C91.0403 46.8476 90.555 45.5097 90.1358 44.2474C89.6456 42.7729 89.246 41.4007 88.9115 40.2284C88.5571 38.9865 88.5945 37.8816 88.9448 36.997ZM96.6111 34.8489C94.7168 35.2249 92.882 35.6301 91.7565 35.9282C90.8853 36.1549 90.2689 36.6707 89.9736 37.4071C89.697 38.0968 89.6916 38.9597 89.9637 39.9307C90.2888 41.0915 90.6775 42.4503 91.1555 43.9108C91.5614 45.1513 92.0307 46.4655 92.5801 47.7943C93.0116 48.8365 93.5435 49.4978 94.2157 49.8629C94.9511 50.263 95.836 50.3086 96.8765 50.1784C98.0746 50.0287 100.103 49.6953 102.107 49.3215C104.164 48.9376 106.195 48.5115 107.27 48.2016C108.242 47.9209 108.922 47.4854 109.226 46.773C109.499 46.1301 109.465 45.2931 109.151 44.2153C108.733 42.7833 108.117 40.8831 107.507 39.1951C107.033 37.883 106.563 36.7004 106.196 35.972C105.779 35.1462 105.18 34.5079 104.29 34.1738C103.563 33.901 102.653 33.8288 101.514 33.9879C100.172 34.1769 98.3666 34.5001 96.6111 34.8489Z" fill="#1D1D1D"/>
<path fill-rule="evenodd" clip-rule="evenodd" d="M156.931 5.24663C158.815 6.48723 159.842 8.80555 161.048 11.7926C163.37 17.553 173.286 46.952 183.244 77.4074C191.7 103.27 200.187 129.895 204.072 143.444C205.064 146.901 205.183 149.825 204.294 152.136C203.319 154.673 201.147 156.526 197.47 157.529C193.939 158.491 183.19 160.988 171.256 163.696C155.637 167.239 137.988 171.145 131.849 172.43C127.736 173.29 124.729 173.11 122.392 171.786C120.048 170.455 118.347 167.954 116.928 164.04C115.394 159.812 102.294 118.18 91.0946 81.5916C83.0606 55.3391 76.0077 31.6808 74.9074 26.2698C74.3127 23.3388 74.3633 21.0497 75.6133 19.3106C76.6529 17.8623 78.5582 16.7566 81.7823 16.0419C82.2642 15.935 82.7804 15.8079 83.3534 15.6669C84.5986 15.3605 86.1122 14.9879 88.1233 14.6132C89.8588 14.2896 91.9643 13.9645 94.5857 13.6787C95.6739 13.5601 96.6569 13.8786 97.565 14.4745C98.7369 15.2445 99.7783 16.5167 100.795 17.7592C101.206 18.2603 101.612 18.7565 102.021 19.213C102.939 20.2397 103.834 21.0941 104.933 21.0045C107.5 20.7944 111.753 20.144 116.557 19.2922C122.193 18.2932 128.585 17.0161 133.92 15.8398C134.953 15.6121 135.469 14.6628 135.887 13.5527C136.169 12.8042 136.394 11.9779 136.617 11.1594C136.942 9.96692 137.262 8.791 137.746 7.89752C138.296 6.88443 139.045 6.19549 140.096 6.007C141.754 5.70965 143.873 5.37449 145.87 5.07715C148.381 4.70337 150.7 4.38942 151.673 4.28437C154.027 4.03064 155.671 4.41643 156.931 5.24663ZM181.844 77.8662C171.867 47.4673 161.931 18.1241 159.606 12.3749L159.504 12.1201C158.491 9.60525 157.684 7.60064 156.078 6.54106C155.065 5.87213 153.732 5.61861 151.838 5.8207C150.875 5.92355 148.581 6.23231 146.096 6.59949C144.114 6.89243 142.012 7.22259 140.366 7.51573C139.905 7.59797 139.574 7.88831 139.302 8.2811C139.004 8.71211 138.779 9.25737 138.578 9.85506C138.381 10.4429 138.207 11.076 138.031 11.7147C137.65 13.1006 137.261 14.513 136.612 15.545C136.042 16.4521 135.285 17.0964 134.247 17.3241C128.891 18.4991 122.475 19.7737 116.818 20.7704C111.956 21.6272 107.652 22.2783 105.053 22.488C104 22.573 103.032 22.1448 102.122 21.3909C101.311 20.7203 100.541 19.7733 99.7574 18.8091C99.1406 18.0506 98.5151 17.2813 97.8543 16.6275C96.9299 15.7109 95.9449 15.015 94.7435 15.1446C92.1666 15.4228 90.0974 15.7399 88.3903 16.0561C86.401 16.4247 84.9035 16.792 83.6702 17.0945C83.0966 17.2352 82.5801 17.3619 82.0979 17.4682C79.3491 18.0742 77.6804 18.9267 76.7925 20.1597C75.7488 21.611 75.8317 23.5341 76.3272 25.9821C77.4195 31.3809 84.4381 54.9875 92.4356 81.1818C103.599 117.748 116.673 159.352 118.203 163.578C119.482 167.105 120.947 169.408 123.061 170.605C125.162 171.796 127.872 171.876 131.57 171.099C137.705 169.813 155.344 165.907 170.952 162.357C182.858 159.65 193.582 157.15 197.104 156.186C200.249 155.328 202.158 153.807 202.99 151.636C203.786 149.559 203.616 146.937 202.722 143.83C198.827 130.297 190.322 103.7 181.844 77.8662Z" fill="#1D1D1D"/>
<path d="M111.152 15.4958L129.624 12.3511C129.954 12.2961 130.177 11.9831 130.121 11.6534C130.066 11.3231 129.753 11.1007 129.423 11.1563L110.939 14.2288C110.589 14.2876 110.353 14.6192 110.412 14.9687C110.471 15.3188 110.802 15.5545 111.152 15.4958Z" fill="#1D1D1D"/>
<path d="M107.12 17.1674C107.772 16.9252 108.067 16.1144 107.779 15.3564C107.491 14.5984 106.729 14.1802 106.078 14.4225C105.426 14.6647 105.131 15.4755 105.419 16.2335C105.707 16.9915 106.469 17.4097 107.12 17.1674Z" fill="#1D1D1D"/>
<path d="M70.466 20.3509C71.1841 17.7947 72.7213 16.4356 74.4021 15.4624C74.6489 15.3191 74.9664 15.4035 75.11 15.6512C75.2536 15.899 75.1687 16.2165 74.9219 16.3598C73.4495 17.2116 72.0902 18.3922 71.4632 20.6305C70.909 22.6032 70.913 25.3613 71.8253 29.3609C72.9377 34.2356 82.8912 66.9977 93.0772 99.729C103.114 131.982 113.377 164.203 115.637 169.682C116.69 172.233 118.219 173.834 119.794 174.83C122.908 176.803 126.182 176.421 126.182 176.421C126.45 176.389 126.694 176.581 126.726 176.849C126.758 177.118 126.566 177.362 126.298 177.394C126.298 177.394 122.694 177.828 119.269 175.659C117.553 174.574 115.877 172.835 114.729 170.056C112.464 164.571 102.175 132.316 92.1165 100.029C81.9082 67.2655 71.9365 34.4706 70.82 29.5906C69.8532 25.3587 69.8815 22.4387 70.466 20.3509Z" fill="#1D1D1D"/>
<path d="M133.829 176.05C137.512 175.472 144.984 173.831 153.703 171.798C170.439 167.898 191.778 162.554 199.696 160.531C203.275 159.616 205.352 158.187 206.559 156.767C208.725 154.216 208.159 151.632 208.159 151.632C208.103 151.368 207.844 151.198 207.579 151.254C207.315 151.308 207.146 151.568 207.202 151.832C207.202 151.832 207.632 153.989 205.811 156.13C204.695 157.443 202.759 158.732 199.452 159.574C192.544 161.333 175.421 165.613 160.055 169.257C148.663 171.958 138.238 174.311 133.669 175.026C133.386 175.07 133.192 175.336 133.236 175.618C133.281 175.9 133.546 176.094 133.829 176.05Z" fill="#1D1D1D"/>
<path fill-rule="evenodd" clip-rule="evenodd" d="M160.518 2.0247C162.259 3.44158 163.396 5.45616 164.221 7.54838C166.679 13.8016 177.44 45.4974 188.174 78.1304C197.491 106.455 206.789 135.486 210.611 149.196C211.726 153.196 211.508 157.196 209.261 160.568C207.499 163.215 204.471 165.49 199.786 167.039C196.106 168.258 184.223 171.157 171.056 174.215C153.223 178.355 133.032 182.783 127.71 183.689C123.14 184.468 119.292 183.745 116.275 181.958C112.934 179.983 110.601 176.694 109.451 172.628C108.861 170.545 105.572 159.786 101.062 145.11C97.2991 132.873 92.6868 117.911 88.0839 102.981C78.5414 72.0283 69.0397 41.2075 67.2331 35.0563C65.5725 29.4014 65.6898 24.8852 66.9843 21.3945C68.7177 16.721 72.5608 13.84 77.2594 12.5202C81.6667 11.2818 98.57 8.19689 115.53 5.40074C132.44 2.61298 149.404 0.11437 154.105 0.00371629C156.887 -0.0619153 158.947 0.746878 160.518 2.0247ZM186.793 78.586C176.031 46.0044 165.238 14.3613 162.774 8.11865C162.048 6.27315 161.073 4.47848 159.539 3.22748C158.219 2.15156 156.48 1.49404 154.14 1.54627C149.465 1.65052 132.593 4.12371 115.772 6.87505C98.8794 9.63819 82.0389 12.6839 77.6477 13.9117C73.4002 15.0998 69.8949 17.6689 68.3233 21.8923C67.1097 25.1529 67.045 29.3721 68.5903 34.6579C69.5591 37.9669 72.7468 48.4164 76.9681 62.1845C80.9644 75.2207 85.8866 91.2308 90.7269 106.975L90.7351 107.001L90.7354 107.002C100.371 138.342 109.679 168.619 110.711 172.272C111.764 175.995 113.881 179.023 116.941 180.834C119.723 182.481 123.276 183.115 127.49 182.397C132.802 181.49 152.956 177.064 170.755 172.92C183.866 169.868 195.698 166.971 199.361 165.756C203.685 164.322 206.503 162.259 208.128 159.814C210.148 156.774 210.297 153.166 209.289 149.565C205.455 135.87 196.136 106.875 186.793 78.586Z" fill="#1D1D1D"/>
<path fill-rule="evenodd" clip-rule="evenodd" d="M181.55 81.5151L213.172 55L222 65.481L189.911 92.3611L217.066 127.646L206.215 136L179.422 101.182L145.828 129.358L137 118.876L171.063 90.3373L154 68.5L168.5 65L181.55 81.5151Z" fill="url(#paint0_radial_95_334)"/>
<defs>
<radialGradient id="paint0_radial_95_334" cx="0" cy="0" r="1" gradientUnits="userSpaceOnUse" gradientTransform="translate(181.846 88.219) rotate(-36.8342) scale(57.3334 57.323)">
<stop stop-color="#EE2F53" stop-opacity="0.54"/>
<stop offset="1" stop-color="#EE2F53" stop-opacity="0"/>
</radialGradient>
</defs>
</svg>
