<svg width="20" height="20" viewBox="0 0 20 20" fill="none" xmlns="http://www.w3.org/2000/svg">
<path d="M19.2495 10C19.2495 15.1087 15.1082 19.25 9.99973 19.25C4.89126 19.25 0.75 15.1087 0.75 10C0.75 4.89135 4.89126 0.75 9.99973 0.75C15.1082 0.75 19.2495 4.89135 19.2495 10Z" stroke="#185AC5" stroke-width="1.5"/>
<path fill-rule="evenodd" clip-rule="evenodd" d="M12.4649 10.0404C13.1186 9.41687 13.5681 8.52055 13.5681 7.50733C13.5681 5.55881 11.9746 4 10.0134 4C8.0522 4 6.45873 5.55881 6.45873 7.50733C6.45873 8.52055 6.86731 9.41687 7.5619 10.0404C6.2953 10.547 5.23298 11.5574 4.66097 12.7265C4.41582 13.2331 4.45668 13.8177 4.74269 14.2853L4.75238 14.2992C4.91929 14.5388 5.26544 15.0356 6.90817 15.5324C7.48018 15.7272 8.66507 16 9.93168 16H9.97253C11.6477 16 14.5078 15.3375 15.2432 14.1684C15.5701 13.6618 15.5701 13.0772 15.325 12.5706C14.7529 11.5184 13.7315 10.547 12.4649 10.0404ZM10.0134 5.59778C11.0757 5.59778 11.9337 6.45513 11.9337 7.5463C11.9337 8.63746 11.0757 9.49481 10.0134 9.49481C8.95108 9.49481 8.09306 8.63746 8.09306 7.5463C8.09306 6.45513 8.95108 5.59778 10.0134 5.59778ZM10.0134 14.5191C8.01134 14.5191 6.05015 13.6618 6.13186 13.428C6.7856 12.1419 8.29735 11.1316 10.0543 11.1316C11.7703 11.1316 13.282 12.103 13.9358 13.35C14.0175 13.5838 12.0563 14.4802 10.0134 14.5191Z" fill="#185AC5"/>
</svg>
