<svg width="200" height="184" viewBox="0 0 200 184" fill="none" xmlns="http://www.w3.org/2000/svg">
<path d="M114.182 117.054C109.882 111.021 106.348 102.781 103.962 95.4806C101.688 88.534 102.035 83.634 107.355 76.414C109.002 74.2206 110.815 72.114 112.228 69.7673C114.295 66.3273 115.788 62.534 116.555 58.5873C116.995 56.3273 117.062 54.0206 116.835 51.734C116.682 50.174 116.422 48.534 115.882 47.0673C115.555 46.174 114.722 45.7273 113.888 45.4073C111.635 44.554 109.102 44.2406 106.722 43.9273C102.188 43.3273 97.6552 43.3873 93.1018 43.4006C86.7352 43.4206 80.5085 44.214 74.2552 45.314C68.3552 46.354 62.4285 47.6206 56.9152 50.0206C55.9285 50.454 54.9552 50.914 54.0018 51.4206C52.0552 52.454 50.4152 53.7673 49.7885 55.954C49.0552 58.4873 49.9685 61.2006 51.1618 63.434C52.1085 65.2006 53.1018 66.9406 54.1352 68.6606C55.0952 70.274 56.0885 71.8606 57.0752 73.4273C57.9218 74.7673 58.7352 76.2673 59.7885 77.4406C60.8552 78.6273 61.9952 79.7206 63.3285 80.614C68.9885 84.4006 75.9618 85.4606 82.8552 86.434C92.1218 87.7406 96.0152 90.9873 99.3818 97.6473C102.848 104.501 106.168 112.827 107.382 120.141C108.775 128.554 106.068 134.534 101.435 141.694L109.402 137.647L115.428 135.027C116.688 134.427 117.989 133.894 119.309 133.434L125.022 131.194C126.382 130.661 127.762 130.181 129.162 129.761L134.055 128.287C125.722 126.494 119.135 123.987 114.182 117.047V117.054Z" fill="url(#paint0_linear_95_1053)"/>
<path d="M31.6875 52.1207C31.8142 49.1207 34.0142 46.7273 36.2008 44.5873C45.8675 35.1007 58.4675 27.8607 70.8608 22.7007C91.4408 14.1273 111.394 11.4673 118.821 15.7407C119.208 15.9607 119.554 16.2073 119.861 16.4807" stroke="black" stroke-linecap="round" stroke-linejoin="round"/>
<path d="M149.835 162.741C166.101 153.688 176.195 143.981 173.915 138.501L169.435 127.741C166.428 120.528 143.101 123.388 117.328 134.121C101.735 140.615 88.8212 148.508 81.7212 155.328" stroke="black" stroke-width="1.33333" stroke-linecap="round" stroke-linejoin="round"/>
<path d="M42.0676 60.4011C35.5876 60.5744 31.3809 59.2944 30.1876 56.4278L25.6543 45.5411C22.6476 38.3278 41.1076 23.7744 66.8809 13.0411C92.6542 2.30777 115.981 -0.552233 118.988 6.6611L123.521 17.5478C124.508 19.9211 123.174 23.0811 120.028 26.6411" stroke="black" stroke-width="1.33333" stroke-linecap="round" stroke-linejoin="round"/>
<path d="M40.1146 55.2344C42.748 61.5077 50.7213 79.061 59.9946 85.2677C64.6613 88.3944 69.9946 90.501 75.5213 91.4744C79.888 92.241 87.0946 90.7744 88.3346 96.641C88.9213 99.4077 87.4746 101.421 85.6346 103.241C83.6746 105.181 81.9213 107.468 80.388 109.754C77.1746 114.568 74.8946 120.001 73.7946 125.688C71.5746 137.148 75.068 147.694 79.1346 158.061C76.2413 161.454 75.1546 164.348 76.1013 166.628L80.5813 177.388C82.448 181.868 92.1613 182.461 105.435 179.694C106.881 179.394 108.135 179.108 109.575 178.748C116.661 176.994 124.555 174.394 132.688 171.001C137.088 169.168 141.268 167.228 145.168 165.228" stroke="black" stroke-width="1.33333" stroke-linecap="round" stroke-linejoin="round"/>
<path d="M158.82 120.208C154.733 111.468 149.873 103.308 141.42 97.6482C137.113 94.7682 132.28 92.6882 127.24 91.4948C124.727 90.9015 122.133 90.4882 119.553 90.3482C117.113 90.2148 114.613 90.6815 112.387 89.3282C110.827 88.3815 109.76 86.6748 109.607 84.8548C109.387 82.3282 110.827 80.8415 112.407 79.1615C114.087 77.3748 115.573 75.3815 116.887 73.3148C119.58 69.0682 121.487 64.3215 122.44 59.3815C124.147 50.5748 120.34 37.4748 117.5 29.2215C117.5 29.2215 115.293 22.8615 114.767 21.5948C112.593 16.3748 93.84 18.5482 72.98 27.2415C71.1867 27.9882 69.44 28.7682 67.74 29.5748C66.3867 30.2148 65.0667 30.8748 63.7867 31.5482C52.98 37.1815 44.6867 43.6348 41.0333 48.1615C41.02 48.1748 41.0133 48.1882 41 48.2015" stroke="black" stroke-width="1.33333" stroke-linecap="round" stroke-linejoin="round"/>
<path d="M81.8412 172.534C82.3679 169.627 84.7678 167.401 86.6812 165.627C86.7678 165.547 86.8279 165.494 86.9479 165.387C88.3145 164.127 89.7545 162.947 91.2278 161.814C95.4545 158.574 99.9945 155.741 104.648 153.154C110.195 150.067 115.941 147.327 121.808 144.887C131.955 140.661 142.575 137.134 153.455 135.387C155.921 134.987 158.415 134.694 160.915 134.574C162.655 134.494 164.468 134.341 166.221 134.607C168.048 134.881 169.368 135.954 170.275 136.801" stroke="black" stroke-linecap="round" stroke-linejoin="round"/>
<defs>
<linearGradient id="paint0_linear_95_1053" x1="120.482" y1="147.207" x2="58.6418" y2="-6.4127" gradientUnits="userSpaceOnUse">
<stop offset="0.01" stop-color="#FFD892" stop-opacity="0"/>
<stop offset="0.05" stop-color="#FFD892" stop-opacity="0.13"/>
<stop offset="0.12" stop-color="#FFD892" stop-opacity="0.33"/>
<stop offset="0.19" stop-color="#FFD892" stop-opacity="0.51"/>
<stop offset="0.26" stop-color="#FFD892" stop-opacity="0.66"/>
<stop offset="0.33" stop-color="#FFD892" stop-opacity="0.78"/>
<stop offset="0.41" stop-color="#FFD892" stop-opacity="0.88"/>
<stop offset="0.49" stop-color="#FFD892" stop-opacity="0.95"/>
<stop offset="0.57" stop-color="#FFD892" stop-opacity="0.99"/>
<stop offset="0.68" stop-color="#FFD892"/>
</linearGradient>
</defs>
</svg>
