<svg width="295" height="184" viewBox="0 0 295 184" fill="none" xmlns="http://www.w3.org/2000/svg">
<path fill-rule="evenodd" clip-rule="evenodd" d="M73.6577 17.5904C73.6923 16.8177 73.9346 16.0104 74.5691 15.4914C75.1922 14.9725 75.9652 14.6611 76.6805 14.6611C85.1839 15.157 108.975 16.3564 118.309 16.8869C120.42 17.0022 122.151 18.7667 122.232 20.8771C122.624 30.599 123.42 55.9013 123.812 65.6232C123.893 67.7337 122.22 69.4982 120.143 69.5558C110.809 69.971 86.603 71.205 77.0036 71.6547C75.9075 71.6547 74.9499 71.2396 74.1884 70.6053C73.3461 69.8672 73.0692 68.8523 73 67.8029C73.15 57.1007 73.5077 27.2431 73.6692 17.5904H73.6577Z" fill="url(#paint0_linear_95_714)"/>
<path fill-rule="evenodd" clip-rule="evenodd" d="M204.78 27.0452C204.78 35.9068 197.593 43.0904 188.728 43.0904C179.862 43.0904 172.675 35.9068 172.675 27.0452C172.675 18.1837 179.862 11 188.728 11C197.593 11 204.78 18.1837 204.78 27.0452ZM203.58 27.0452C203.58 35.2435 196.931 41.8904 188.728 41.8904C180.524 41.8904 173.875 35.2435 173.875 27.0452C173.875 18.8469 180.524 12.2 188.728 12.2C196.931 12.2 203.58 18.8469 203.58 27.0452Z" fill="#1D1D1D"/>
<path d="M193.705 48.2393L171.831 45.1487C168.706 44.7061 165.581 45.8748 163.504 48.2586L163.503 48.2594L145.146 69.3988C144.181 70.5119 143.526 71.8474 143.229 73.2808L143.228 73.2833L138.763 95.3339C138.053 98.8567 140.373 102.276 143.907 102.934L143.91 102.935C147.317 103.555 150.614 101.378 151.349 97.992L151.353 97.9749L154.906 78.854L154.907 78.8528C155.118 77.7001 155.648 76.619 156.422 75.739L165.909 64.9648L161.983 93.3969C161.982 93.4044 161.981 93.4119 161.98 93.4195C161.733 95.9347 162.56 98.4238 164.247 100.307L192.262 131.423C193.069 132.317 193.715 133.343 194.187 134.449L207.267 168.299L207.273 168.314C208.057 170.187 209.86 171.554 211.758 172.307C213.648 173.056 215.791 173.258 217.338 172.614C218.846 171.985 220.244 170.588 221.105 168.875C221.97 167.154 222.322 165.052 221.645 162.998L209.757 129.278C209.137 127.514 208.243 125.858 207.124 124.371L184.974 96.3817C184.777 96.1319 184.414 96.0896 184.164 96.2872C183.914 96.4848 183.872 96.8474 184.069 97.0972L206.206 125.069C207.254 126.463 208.089 128.013 208.669 129.66L220.549 163.359L220.55 163.364C221.111 165.07 220.83 166.852 220.074 168.358C219.312 169.873 218.1 171.047 216.894 171.549C215.728 172.035 213.919 171.923 212.184 171.235C210.46 170.551 208.965 169.361 208.34 167.876L195.259 134.024L195.257 134.019L195.252 134.006C194.732 132.785 194.017 131.646 193.119 130.651L165.107 99.5378C163.635 97.8949 162.916 95.7293 163.127 93.5431L167.314 63.2241C167.349 62.972 167.214 62.7269 166.982 62.621C166.751 62.515 166.477 62.5733 166.309 62.7643L155.556 74.9774C154.646 76.0115 154.022 77.2836 153.772 78.6447L150.22 97.7555C149.614 100.523 146.914 102.309 144.117 101.8C141.214 101.258 139.312 98.4505 139.894 95.5617L144.359 73.5145L144.359 73.5133C144.616 72.2716 145.184 71.1166 146.018 70.1541L164.374 49.0155C166.196 46.9252 168.933 45.903 171.669 46.2906L193.545 49.3814C196.95 49.8568 199.739 52.3086 200.648 55.6257L200.649 55.6283L207.097 80.1171C207.442 81.436 208.084 82.6587 208.987 83.6849L219.678 95.9038L219.68 95.9059C221.281 97.7753 221.167 100.569 219.421 102.304C217.52 104.194 214.426 104.112 212.628 102.13L201.823 90.2232C200.928 89.1735 200.242 87.9635 199.829 86.6487L196.91 77.4556C196.813 77.1521 196.489 76.9841 196.185 77.0805C195.881 77.1768 195.713 77.501 195.81 77.8045L198.729 86.995C199.191 88.468 199.958 89.8158 200.951 90.9787L200.963 90.9916L211.774 102.905C214.014 105.374 217.866 105.476 220.234 103.122C222.41 100.961 222.551 97.4817 220.554 95.1532L209.855 82.9245L209.854 82.9232C209.072 82.0351 208.514 80.9734 208.213 79.8244L201.763 55.3294L201.762 55.324C200.732 51.5616 197.568 48.7788 193.705 48.2393Z" fill="#1D1D1D"/>
<path d="M196.952 61.1906C197.19 61.402 197.212 61.7664 197 62.0046C196.164 62.9465 195.623 64.1119 195.432 65.3532L194.464 71.7456L191.119 98.5051C191.079 98.8211 190.791 99.0452 190.475 99.0058C190.159 98.9663 189.934 98.6781 189.974 98.3621L193.32 71.5951L193.322 71.5803L194.291 65.1784C194.515 63.7213 195.151 62.3498 196.137 61.239C196.349 61.0009 196.714 60.9792 196.952 61.1906Z" fill="#1D1D1D"/>
<path d="M169.878 111.3C169.927 111.067 169.777 110.837 169.543 110.788C169.309 110.739 169.08 110.889 169.031 111.123L165.988 125.605C165.564 127.125 164.842 128.545 163.864 129.789L163.863 129.79L142.506 157.273L139.566 161.064L139.565 161.066C137.192 164.079 137.709 168.443 140.71 170.827C143.613 173.139 147.82 172.769 150.28 169.991L174.962 141.006C176.19 139.613 177.194 138.043 177.938 136.354C177.945 136.337 177.952 136.32 177.957 136.303L181.753 123.536C181.821 123.307 181.69 123.066 181.461 122.998C181.232 122.93 180.991 123.061 180.923 123.29L177.135 136.03C176.428 137.629 175.475 139.117 174.31 140.437L149.629 169.421C147.473 171.852 143.79 172.174 141.248 170.15C138.619 168.061 138.167 164.237 140.246 161.599L140.248 161.597L143.19 157.803L164.545 130.323L164.546 130.322C165.596 128.986 166.371 127.459 166.825 125.824C166.828 125.815 166.83 125.806 166.832 125.797L169.878 111.3Z" fill="#1D1D1D"/>
<defs>
<linearGradient id="paint0_linear_95_714" x1="98.5099" y1="86.7277" x2="97.8529" y2="-28.5743" gradientUnits="userSpaceOnUse">
<stop stop-color="#E7FAFF" stop-opacity="0.6"/>
<stop offset="0.32" stop-color="#D0F2FF" stop-opacity="0.77"/>
<stop offset="0.6" stop-color="#BFECFF" stop-opacity="0.9"/>
<stop offset="0.84" stop-color="#B4E8FF" stop-opacity="0.97"/>
<stop offset="1" stop-color="#B1E7FF"/>
</linearGradient>
</defs>
</svg>
