<svg width="204" height="48" viewBox="0 0 204 48" fill="none" xmlns="http://www.w3.org/2000/svg">
<rect width="204" height="48" fill="white"/>
<path d="M41.1094 37.6152C37.582 37.6152 34.793 36.4258 32.7422 34.0469C30.6914 31.668 29.666 28.4277 29.666 24.3262C29.666 20.2129 30.6855 16.9668 32.7246 14.5879C34.7754 12.209 37.5645 11.0195 41.0918 11.0195C43.8809 11.0195 46.2539 11.8398 48.2109 13.4805C50.1797 15.1094 51.3223 17.2188 51.6387 19.8086H47.7188C47.3438 18.25 46.5586 17.0078 45.3633 16.082C44.1797 15.1562 42.7559 14.6934 41.0918 14.6934C38.8184 14.6934 37.0137 15.5605 35.6777 17.2949C34.3535 19.0176 33.6914 21.3613 33.6914 24.3262C33.6914 27.2793 34.3535 29.623 35.6777 31.3574C37.0137 33.0801 38.8242 33.9414 41.1094 33.9414C42.7852 33.9414 44.2148 33.5195 45.3984 32.6758C46.5938 31.832 47.3672 30.6953 47.7188 29.2656H51.6387C51.2871 31.7734 50.1504 33.7949 48.2285 35.3301C46.3066 36.8535 43.9336 37.6152 41.1094 37.6152ZM64.4707 37.3691C61.6582 37.3691 59.4492 36.4844 57.8438 34.7148C56.2383 32.9453 55.4355 30.5137 55.4355 27.4199C55.4355 24.3379 56.2383 21.9121 57.8438 20.1426C59.4609 18.373 61.6699 17.4883 64.4707 17.4883C67.2598 17.4883 69.457 18.373 71.0625 20.1426C72.6797 21.9121 73.4883 24.3379 73.4883 27.4199C73.4883 30.5137 72.6855 32.9453 71.0801 34.7148C69.4746 36.4844 67.2715 37.3691 64.4707 37.3691ZM64.4707 34.0117C66.0996 34.0117 67.3594 33.4375 68.25 32.2891C69.1523 31.1289 69.6035 29.5059 69.6035 27.4199C69.6035 25.3457 69.1523 23.7344 68.25 22.5859C67.3594 21.4258 66.0996 20.8457 64.4707 20.8457C62.8301 20.8457 61.5645 21.4199 60.6738 22.5684C59.7832 23.7168 59.3379 25.334 59.3379 27.4199C59.3379 29.5176 59.7832 31.1406 60.6738 32.2891C61.5645 33.4375 62.8301 34.0117 64.4707 34.0117ZM86.127 37.3691C83.3145 37.3691 81.1055 36.4844 79.5 34.7148C77.8945 32.9453 77.0918 30.5137 77.0918 27.4199C77.0918 24.3379 77.8945 21.9121 79.5 20.1426C81.1172 18.373 83.3262 17.4883 86.127 17.4883C88.916 17.4883 91.1133 18.373 92.7188 20.1426C94.3359 21.9121 95.1445 24.3379 95.1445 27.4199C95.1445 30.5137 94.3418 32.9453 92.7363 34.7148C91.1309 36.4844 88.9277 37.3691 86.127 37.3691ZM86.127 34.0117C87.7559 34.0117 89.0156 33.4375 89.9062 32.2891C90.8086 31.1289 91.2598 29.5059 91.2598 27.4199C91.2598 25.3457 90.8086 23.7344 89.9062 22.5859C89.0156 21.4258 87.7559 20.8457 86.127 20.8457C84.4863 20.8457 83.2207 21.4199 82.3301 22.5684C81.4395 23.7168 80.9941 25.334 80.9941 27.4199C80.9941 29.5176 81.4395 31.1406 82.3301 32.2891C83.2207 33.4375 84.4863 34.0117 86.127 34.0117ZM99.873 37V10.3867H103.652V37H99.873Z" fill="#0066B3"/>
<path d="M126.188 37L123.867 30.2676H114.199L111.861 37H107.818L116.977 11.6348H121.213L130.371 37H126.188ZM118.893 16.2402L115.201 26.9629H122.865L119.191 16.2402H118.893ZM144.293 17.541C146.73 17.541 148.664 18.4316 150.094 20.2129C151.523 21.9824 152.238 24.3848 152.238 27.4199C152.238 30.4551 151.523 32.8633 150.094 34.6445C148.676 36.4258 146.754 37.3164 144.328 37.3164C142.969 37.3164 141.773 37.0352 140.742 36.4727C139.711 35.8984 138.943 35.1074 138.439 34.0996H138.141V43.3633H134.361V17.8574H138V21.0215H138.281C138.855 19.9316 139.676 19.082 140.742 18.4727C141.809 17.8516 142.992 17.541 144.293 17.541ZM143.221 33.9238C144.826 33.9238 146.08 33.3496 146.982 32.2012C147.896 31.041 148.354 29.4473 148.354 27.4199C148.354 25.3926 147.896 23.8047 146.982 22.6562C146.08 21.5078 144.832 20.9336 143.238 20.9336C141.645 20.9336 140.385 21.5195 139.459 22.6914C138.533 23.8516 138.07 25.4336 138.07 27.4375C138.07 29.4297 138.533 31.0117 139.459 32.1836C140.385 33.3438 141.639 33.9238 143.221 33.9238ZM166.723 17.541C169.16 17.541 171.094 18.4316 172.523 20.2129C173.953 21.9824 174.668 24.3848 174.668 27.4199C174.668 30.4551 173.953 32.8633 172.523 34.6445C171.105 36.4258 169.184 37.3164 166.758 37.3164C165.398 37.3164 164.203 37.0352 163.172 36.4727C162.141 35.8984 161.373 35.1074 160.869 34.0996H160.57V43.3633H156.791V17.8574H160.43V21.0215H160.711C161.285 19.9316 162.105 19.082 163.172 18.4727C164.238 17.8516 165.422 17.541 166.723 17.541ZM165.65 33.9238C167.256 33.9238 168.51 33.3496 169.412 32.2012C170.326 31.041 170.783 29.4473 170.783 27.4199C170.783 25.3926 170.326 23.8047 169.412 22.6562C168.51 21.5078 167.262 20.9336 165.668 20.9336C164.074 20.9336 162.814 21.5195 161.889 22.6914C160.963 23.8516 160.5 25.4336 160.5 27.4375C160.5 29.4297 160.963 31.0117 161.889 32.1836C162.814 33.3438 164.068 33.9238 165.65 33.9238Z" fill="#EE2F53"/>
</svg>
